<?xml version="1.0" encoding="UTF-8"?><svg id="Layer_2" xmlns="http://www.w3.org/2000/svg" viewBox="0 0 91.96 91.96"><defs><style>.cls-1{fill:#1d1b53;stroke:#221f20;stroke-miterlimit:10;}.cls-2{fill:#9695c5;stroke-width:0px;}</style></defs><g id="Layer_1-2"><rect class="cls-1" x=".5" y=".5" width="90.96" height="90.96" rx="12" ry="12"/><path class="cls-2" d="m38.44,60.74h-15.69l-3.18,9.55h-6.64l15.04-42.71h5.25l15.04,42.71h-6.61l-3.21-9.55Zm-1.79-5.74l-5.99-18.69h-.11l-5.99,18.69h12.09Z"/><path class="cls-2" d="m52.21,39.88h5.91v18.13c0,2.05.56,3.66,1.68,4.81,1.1,1.15,2.5,1.73,4.2,1.73s3.09-.58,4.17-1.73c1.1-1.15,1.65-2.76,1.65-4.81v-18.13h5.91v30.41h-5.91v-3.25h-.11c-1.95,2.4-4.49,3.6-7.63,3.6-2.44-.04-4.64-.96-6.61-2.75-2.14-1.75-3.22-4.35-3.26-7.78v-20.23Z"/></g></svg>