<?xml version="1.0" encoding="utf-8"?>
<!-- Generator: Adobe Illustrator 28.0.0, SVG Export Plug-In . SVG Version: 6.00 Build 0)  -->
<svg version="1.1" id="Layer_2_00000143578617004083771920000000519460234396576675_"
	 xmlns="http://www.w3.org/2000/svg" xmlns:xlink="http://www.w3.org/1999/xlink" x="0px" y="0px" viewBox="0 0 466.7 386"
	 style="enable-background:new 0 0 466.7 386;" xml:space="preserve">
<style type="text/css">
	.st0{fill:#979797;}
	.st1{fill:#CACACA;}
	.st2{fill:#8BC541;}
	.st3{fill:#F2082A;}
</style>
<g id="gode">
	<path class="st0" d="M18.5,237.3c0.1,1.1,10,6.4,11,7c17,9,75.6,21.7,207.1,16c132.6-5.7,168.9-25,196.9-40"/>
	
		<ellipse transform="matrix(0.9988 -4.919842e-02 4.919842e-02 0.9988 -10.4503 11.7449)" class="st1" cx="233.4" cy="218.2" rx="230.9" ry="24.2"/>
	<path class="st2" d="M348.9,201.7c0,0,21.6-11.9,19.2-24.1c-1.4-7.1-40.9,17-35.2,4.3c5.6-12.7-20.2,4-20.2,4s-29.4,2.3-20.2-14
		c20.9-37.2-44.6-2.8-37.3-17.9c7.5-15.4-32-0.6-35.5-10.8c-3.5-10.2-25.6,10.9-26.3-14.3c-0.4-13-16,9.5-33.9-3.7
		c-2.9-2.2-6.2,3.7-16.5,29.2c0,0,4,40.2-8,19.6c-6.5-11.2-20.3-15-20.3-15s-9.6,19.6-23.5,8.9c-13.8-10.7-6.4,28.3-7.5,29.7
		c0,0,6.6,8.3-9.8,16.5c-30.8,15.4,86,1.2,86,1.2L348.9,201.7L348.9,201.7z"/>
	<path class="st2" d="M348.7,201.2c7.9-4.4,20-12.6,19.5-22.6c-0.1-0.5-0.1-1.1-0.4-1.5c-0.3-0.4-0.8-0.6-1.3-0.7
		c-1-0.2-2.1,0-3.1,0.2c-4.1,0.9-8,2.5-11.9,4c-3.9,1.5-7.8,3.1-11.9,4.3c-2,0.5-4.1,1.3-6.2,0.8c-0.5-0.1-1-0.6-1.2-1.1
		c-0.6-2.1,2.9-5.8,0.3-7c-4.8-0.9-15.4,6.2-19.7,8.9c-5.2,0.3-10.5,0.1-15.6-1.4c-3.9-1.1-7.9-4.2-6.9-8.7c0.7-3.9,3.4-7,4.6-10.7
		c2-5.1,1.9-10.2-4.7-11c-7.6-0.8-15.2,1.4-22.7,2.8c-2.8,0.4-12.2,3.1-13.4-0.7c-0.5-2.6,2.4-4.8,1.1-7.3
		c-2.5-4.3-18.7-1.4-23.8-1.7c-4.2-0.1-10.6,0.3-12.4-4.5c-0.1-0.4-0.4-0.8-0.6-1.1c-4.5-4.4-16.4,4.5-22.4-2.2
		c-2.7-3.2-3-7.3-3.2-11.2c-0.1-5.7-4.6-2.8-7.9-1.7c-4.8,1.9-10,3.6-15.2,3c-3.6-0.4-7.1-1.8-10-3.9c-0.3-0.2-0.6-0.4-0.8-0.5
		c-0.8-0.5-1.8,0.4-2.6,1.3c-1.5,2-2.7,4.3-3.8,6.6c-3.2,6.6-6.4,15.1-9,21c0.2,3.4,3.1,31-4.9,25.2c-2.5-2.1-3.8-5.3-5.6-7.7
		c-1.5-2-3.3-3.8-5.2-5.3c-3.9-3.1-8.4-5.5-13.1-7l0.6-0.3c-3.7,7.3-11.9,15.4-20.6,11.2c-2.6-0.9-4.5-3.6-7.2-3.9
		c-6-0.1-3.7,18.5-3.6,22.6c0.1,1.4,0.4,5,0.5,6.3c0,0.8,0.2,1.6-0.2,2.4v-0.6c1,1.5,1.5,3.2,1.4,4.9c-0.3,5.2-5.1,8.7-9.2,11.2
		c-1.8,1-4.6,2.3-6.2,3.7c-4,3.1,6.1,3.4,7.7,3.6c12.9,0.6,25.8-0.5,38.7-1.4c14.5-1.2,29-2.7,43.4-4.4
		C181.8,213.3,324,203,348.7,201.2L348.7,201.2L348.7,201.2z M349,202.1c-25.7,1.9-166.3,12.1-188.9,13.7
		c-20.9,2.4-41.8,4.6-62.9,5.6c-8.1,0.3-16.3,0.8-24.3-0.4c-2.4-0.4-7-1.7-3.4-4.9c1.8-1.5,4.3-2.6,6.3-3.8c5-2.7,11.4-8.6,7.5-14.6
		v-0.6c-0.1,0.1,0,0,0,0c0-0.1,0-0.1,0-0.2c0.1-6.1-5.8-39.6,8.1-29.6c9.3,7.6,18.2,0.1,22.8-8.6l0.2-0.4l0.4,0.1
		c7.3,2.3,14.2,6.5,18.9,12.7c1.6,2.1,2.6,4.4,4.2,6.3c0.6,0.8,1.6,1.9,2.6,1.9c4.1-1.3,2.2-20.9,1.9-25.1c1.9-4.8,3.9-9.6,5.9-14.4
		c1-2.4,2.1-4.7,3.2-7c1.5-2.8,2.8-6.1,5.4-8.2c0.6-0.4,1.6-0.6,2.3-0.2c0.6,0.3,1.1,0.8,1.6,1.1c2.6,1.7,5.6,2.9,8.7,3.2
		c5.1,0.6,10.1-1,14.7-2.9c2.7-1,7.8-3.8,9,0.6c0.7,4.2,0.2,9.2,3.2,12.6c5.8,6.2,17.3-3,22.4,2.2c0.3,0.4,0.6,0.9,0.8,1.4
		c1.5,4.2,7.7,3.8,11.5,3.9c5.1,0,10.2-0.6,15.4-0.6c6.1,0,12.5,1.2,8.5,8.8c-2.2,5,9.7,1.8,12,1.6c7.6-1.4,15.2-3.6,23-2.8
		c7.2,0.9,7.8,6.5,5.5,12.3c-1.2,3.7-3.9,6.7-4.5,10.5c-0.9,4,2.8,6.6,6.2,7.6c4.5,1.6,11.1,1.5,14.9,1.4c3.6-2.2,7.3-4.3,11.1-6.1
		c2.9-1.1,6-3,9.2-2.3c1.2,0.4,1.4,1.9,1.1,2.9c-0.3,1.5-1.5,2.9-1.2,4.4c0.1,0.5,0.5,0.8,1,1c2,0.5,4.2-0.2,6.1-0.7
		c4-1.2,7.9-2.8,11.9-4.2c3.6-1.2,14.2-6,16.4-3.3C370.8,186.9,356.3,197.6,349,202.1L349,202.1L349,202.1z"/>
	<circle class="st3" cx="263.5" cy="198.3" r="8"/>
	<circle class="st3" cx="279" cy="176.8" r="10.5"/>
	<circle class="st3" cx="220.5" cy="170.3" r="9"/>
	<circle class="st3" cx="170" cy="172.8" r="11.5"/>
	<circle class="st3" cx="101" cy="200.8" r="11.5"/>
	<path class="st2" d="M142.2,215.5c0,0,7.2-3.3,6.2-6.3c-0.6-1.8-13.7,4.8-12,1.5c1.7-3.3-6.8,1.3-6.8,1.3s-10,0.9-7.2-3.3
		c6.5-9.6-15.3-0.1-13.1-4c2.3-4-11,0.2-12.3-2.3c-1.4-2.5-8.6,3.1-9.2-3.3c-0.3-3.3-5.3,2.6-11.7-0.5c-1-0.5-2.1,1-5.1,7.6
		c0,0,2.1,10.1-2.4,5c-2.4-2.7-7.2-3.5-7.2-3.5s-3,5-7.9,2.5c-4.9-2.5-1.7,7.2-2.1,7.6c0,0,2.4,2-3.1,4.3
		c-10.3,4.3,29.5-0.8,29.5-0.8L142.2,215.5L142.2,215.5z"/>
	<path class="st2" d="M142,215c2-0.7,6.9-2.8,6.3-5.7c-0.4-1.2-5,0.7-6,1c-1.9,0.6-3.7,1.4-5.7,1.5c-0.2,0-0.4-0.1-0.5-0.3
		c-0.3-0.5,0.3-1,0.3-1.5c-0.5-1.2-5.8,1.9-6.8,2.4c-2.1,0.1-7.9,0.6-8.3-2.3c0-1.7,1.8-2.8,1.7-4.4c-0.8-2.9-11.5,1.3-13.9,0.2
		c-0.3-0.1-0.6-0.7-0.5-1.1c0.1-0.3,0.2-0.5,0.3-0.6c0.2-0.4,0.2-0.6-0.3-0.7c-3.5-0.6-7.2,0.7-10.8,0c-0.5-0.1-1.2-0.4-1.5-1
		c-0.1-0.2-0.3-0.2-0.5-0.3c-1.9-0.2-3.9,0.8-5.9,0.5c-1.4-0.1-2.5-1.5-2.7-2.8c-0.1-0.4,0-1-0.3-1.3c-0.4-0.1-0.9,0.1-1.4,0.2
		c-1.5,0.5-3.1,1.1-4.8,1.2c-1.8,0.2-3.6-0.3-5.2-1c-1,0.6-1.5,2-2.2,3.1c-0.7,1.4-1.4,2.8-2.1,4.3l0-0.3c0.3,1.8,0.7,3.7,0.4,5.6
		c-0.1,0.4-0.2,0.9-0.7,1.3c-1.7,0.7-2.8-1.7-4-2.4c-1.7-1.2-3.8-2-5.8-2.4l0.5-0.2c-1.6,2.6-4.9,4.3-7.9,3c-0.9-0.3-2-1.3-2.5-0.2
		c-0.6,1.9,0.2,4.3,0.5,6.3c0,0.4,0.2,0.7-0.1,1l0-0.7c0.5,0.5,0.8,1.2,0.6,2c-0.8,2.4-3.5,2.7-5.3,3.9c0,0,0,0,0-0.1
		c0-0.1,0-0.2-0.1-0.2c0,0,0.1,0,0.2,0.1c5.6,0.7,11.3-0.3,16.9-0.7c4.3-0.4,8.7-0.9,13-1.4C85.8,220,132.4,215.9,142,215L142,215
		L142,215z M142.3,216c-9.9,0.9-56.2,5-65.1,5.9c-8.7,1-17.3,2.1-26.1,2.4c-1.4,0-2.8,0.1-4.2-0.3c-0.2-0.1-0.3-0.1-0.6-0.3
		c-0.8-1,0.9-1.7,1.6-2c1.2-0.5,4.5-1.9,3.2-3.5l0-0.7c-0.1,0.2-0.1,0.2-0.1,0.2c0,0,0,0,0,0v-0.1c-0.2-2-2-7.5,0.8-8.2
		c1-0.2,1.8,0.4,2.6,0.7c2.7,1.2,5.5-0.6,6.8-2.9c2.3,0.4,4.6,1.2,6.6,2.6c0.9,0.6,1.5,1.6,2.4,2.2c1.6,1.2,0.6-4.9,0.4-5.7l0-0.2
		l0.1-0.1c6.7-14.5,3.6-3.6,14.8-8.1c0.8-0.3,2.3-0.6,2.8,0.5c0.2,0.8,0.2,1.6,0.6,2.3c0.6,1.2,2.3,1.2,3.8,0.9
		c1.5-0.2,3.6-1.1,4.8,0.3c0.3,0.7,1.3,0.8,2,0.8c2.2,0.5,13.1-2.3,10.4,2.4c3.3,0.1,7.4-1.4,11-1.4c4.3-0.1,4,2.7,1.9,5.5
		c-1.6,2.8,5.4,2.3,6.8,2.2l-0.2,0.1c1.4-0.5,9.1-4.3,7.1-0.5c-0.5,2.3,11.6-3.6,12-1.7c0.6,2.6-3.7,5.1-5.6,6.4
		C142.6,215.9,142.5,215.9,142.3,216L142.3,216L142.3,216z"/>
	<path class="st2" d="M408.2,219.5c0,0,11.4-6.9,11-14.8c-0.3-4.6-21.3,9.6-17.7,1.6c3.5-8-10.3,1.9-10.3,1.9s-14.7,0.5-9.2-9.6
		c12.5-23.1-22-3.2-17.4-12.7c4.6-9.6-15.8-1.4-17-8.1s-13.4,6.1-12.2-10c0.6-8.4-8.5,5.6-16.6-3.5c-1.3-1.5-3.3,2.2-9.9,18.2
		c0,0-0.4,25.9-5.1,12.3c-2.6-7.4-9.2-10.3-9.2-10.3s-5.9,12.2-12.2,4.9c-6.2-7.3-4.9,17.9-5.5,18.8c0,0,2.8,5.6-5.9,10.3
		c-16.2,8.9,42.6,3.6,42.6,3.6L408.2,219.5L408.2,219.5z"/>
	<path class="st2" d="M408.1,219c4.4-2.6,10-6.9,11-12.6c0.1-0.8,0.4-1.9-0.3-2.5c-1.3-0.6-2.9,0.2-4.2,0.6
		c-3.9,1.3-7.5,3.3-11.4,4.3c-1.5,0.3-2.7-0.2-2.1-1.9c0.4-1.2,1.8-4-0.6-3.4c-3.3,1-6.2,3.2-9,5.2c-4,0-10.4-0.6-11.1-5.7
		c-0.1-1.6,0.4-3,1.1-4.3c1.3-2.4,2.6-5,2.9-7.7c0.1-1.3-0.3-2.5-1.5-3.1c-3.9-1.5-8.2,0.1-12.2,0.7c-1.8,0.3-3.6,0.7-5.5,0.4
		c-0.4-0.1-0.9-0.3-1.2-0.8c-0.5-0.9-0.2-1.7,0.2-2.5c0.6-1.2,1-2.6,0.2-3.4c-0.9-0.8-2.4-0.9-3.6-1c-2.8-0.2-5.6,0.1-8.5-0.2
		c-2.2-0.2-4.9-1-5.2-3.7c-1.2-3.6-8.6,2.3-11.2-2.6c-1.4-2.6-0.8-5.7-0.9-8.5c-0.1-1.5-1.8-0.6-2.7-0.2c-1.9,0.8-4,1.8-6.2,1.9
		c-2.9,0.3-5.8-1.3-7.7-3.5c-0.1,0-0.3,0.1-0.4,0.2c-2.4,2.9-3.6,6.7-5.2,10.1c-1.1,2.3-2.4,6-3.2,7.6c-0.1,3-0.2,6-0.5,9
		c-0.4,2.4-0.4,5.1-1.8,7.3c-2.2,2.1-3.5-3.2-4.1-4.4c-1.5-4-4.8-7.5-8.6-9.4l0.6-0.2c-3.1,5.9-8.3,11.1-13.8,4.2
		c-3.8-2.9-3.5,14.8-3.6,16.8c0,0.4,0,1.5-0.1,1.9l0,0.3c0,0.2,0,0.2-0.2,0.5l0-0.5c0.7,1.7,0.6,3.6-0.1,5.2
		c-1.1,2.4-3.1,4.1-5.3,5.4c-1.1,0.6-2.1,1.1-2.9,2c-0.2,0.3-0.3,0.5-0.2,0.6c0.2,0.5,1.1,0.8,1.7,0.9c6.4,1.4,13,0.9,19.5,0.9
		c8.2-0.2,16.4-0.9,24.6-1.4C323.3,221.2,397.7,219.3,408.1,219L408.1,219L408.1,219z M408.4,219.9c-10.9,0.3-84.6,2.3-93.7,2.5
		c-8.2,0.6-16.4,1.2-24.6,1.4c-4.9,0.1-9.9,0.2-14.8-0.2c-2.1-0.2-4.2-0.3-6.2-1.2c-4-2.4,2.9-4.8,4.5-6.3c2.4-1.8,4.3-5,3.1-7.9
		l0-0.5c-0.1,0.2,0,0,0-0.1c0.1-0.5,0.1-1.6,0.1-2.1c0.2-3.2-0.4-18.1,3.8-18.1c1.1,0.1,1.7,0.8,2.4,1.5c0.7,0.9,1.7,1.7,2.8,2
		c4.1,0.9,7.1-4.1,8.8-7.2l0.4,0.2c2.8,1.4,5.1,3.4,7,5.9c1.9,2.3,2.4,5.5,4,7.9c0.2,0.3,0.5,0.4,0.4,0.4c0.6-0.4,0.8-1.7,1-2.5
		c0.9-4.4,1-8.9,1.1-13.4c1.1-2.6,2.2-5.3,3.3-7.9c1.7-3.5,2.9-7.5,5.5-10.5c0.6-0.6,1.5-0.6,2.1,0.1c0.8,0.9,1.7,1.6,2.8,2.2
		c2.5,1.3,5.3,0.8,7.8-0.3l2-0.8c1-0.4,2.5-1.2,3.5-0.2c0.8,1,0.5,2.4,0.5,3.4c-0.1,1.4-0.1,2.8,0.2,4.1c1,6,6.4,2.1,10.2,2.9
		c3.3,1.3-0.1,4.2,6,4.8c4.2,0.7,16.6-2.1,12.7,6c-0.3,0.6-0.5,1.3-0.2,1.5c0.2,0.3,0.9,0.4,1.5,0.4c1.3,0,2.7-0.2,4.1-0.5
		c4.2-0.6,8.6-2.3,12.9-0.6c3.1,1.6,2,5.8,0.9,8.3c-0.9,2.5-3,4.9-2.8,7.6c0.6,4.3,6.4,4.7,9.9,4.7l-0.3,0.1c2-1.3,4-2.5,6.1-3.5
		c1.3-0.6,2.7-1.4,4.3-1.3c3.3,0.8-2.9,6.4,1.9,5.6c4-0.8,7.6-2.8,11.5-4.1c1.4-0.3,2.9-1.1,4.2-0.5c0.7,0.6,0.3,1.7,0.3,2.5
		c-1.1,5.5-5.7,9.6-9.9,12.9l-0.4,0.3l-0.2,0.1C408.5,219.8,408.7,219.8,408.4,219.9L408.4,219.9L408.4,219.9z"/>
	<circle class="st3" cx="141.5" cy="198.3" r="9"/>
	<path class="st2" d="M279.5,216.4c0,0,11.4-6.9,11-14.8c-0.3-4.6-21.3,9.6-17.7,1.6c3.5-8-10.3,1.9-10.3,1.9s-14.7,0.5-9.2-9.6
		c12.5-23.1-22-3.2-17.4-12.7c4.6-9.6-15.8-1.4-17-8.1s-13.4,6.1-12.2-10c0.6-8.4-8.5,5.6-16.6-3.5c-1.3-1.5-3.3,2.2-9.9,18.2
		c0,0-0.4,25.9-5.1,12.3c-2.6-7.4-9.2-10.3-9.2-10.3s-5.9,12.2-12.2,4.9c-6.2-7.3-4.9,17.9-5.5,18.8c0,0,2.8,5.6-5.9,10.3
		c-16.2,8.9,42.6,3.6,42.6,3.6L279.5,216.4L279.5,216.4z"/>
	<path class="st2" d="M279.4,215.9c4.4-2.6,10-6.9,11-12.6c0.1-0.8,0.4-1.9-0.3-2.5c-1.3-0.6-2.9,0.2-4.2,0.6
		c-3.9,1.3-7.5,3.3-11.4,4.3c-1.5,0.3-2.7-0.2-2.1-1.9c0.4-1.2,1.8-4-0.6-3.4c-3.3,1-6.2,3.2-9,5.2c-4,0-10.4-0.6-11.1-5.7
		c-0.1-1.6,0.4-3,1.1-4.3c1.3-2.4,2.6-5,2.9-7.7c0.1-1.3-0.3-2.5-1.5-3.1c-3.9-1.4-8.2,0.1-12.2,0.7c-1.8,0.3-3.6,0.7-5.5,0.4
		c-0.4-0.1-0.9-0.3-1.2-0.8c-0.5-0.9-0.2-1.7,0.2-2.5c0.6-1.2,1-2.6,0.2-3.4c-0.9-0.8-2.4-0.9-3.6-1c-2.8-0.2-5.6,0.1-8.5-0.2
		c-2-0.2-4.7-0.9-5.1-3.2c-0.1-0.7-0.5-1.4-1.2-1.6c-1.2-0.3-2.7,0.1-4,0.3c-6.3,1.5-7.5-3.1-7.1-8.3c0.2-2.6,0.2-3.6-2.7-2.3
		c-3.2,1.5-7.2,2.9-10.6,1.1c-1.2-0.6-2.4-1.7-3.3-2.6c0,0,0,0-0.1,0c-0.9,0.6-1.4,1.8-2,2.7c-2.6,5-4.7,10.3-6.8,15.5
		c-0.1,4.3-0.1,10.8-1.9,15.5c-2.1,3.4-3.9-2.4-4.4-3.9c-1.6-4-4.8-7.5-8.6-9.4l0.6-0.2c-3.1,5.9-8.3,11.1-13.8,4.2
		c-3.8-2.9-3.5,14.8-3.6,16.8c0,0.4,0,1.5-0.1,1.9l0,0.3c0,0.1,0,0.2-0.2,0.5l0-0.5c0.7,1.7,0.6,3.6-0.1,5.2
		c-1.1,2.4-3.1,4.1-5.3,5.4c-1.1,0.6-2.1,1.1-2.9,2c-0.2,0.3-0.3,0.5-0.2,0.7c0.2,0.5,1.1,0.8,1.7,0.9c6.4,1.4,13,0.9,19.5,0.9
		c8.2-0.2,16.4-0.9,24.6-1.4C194.6,218.2,269,216.2,279.4,215.9L279.4,215.9L279.4,215.9z M279.7,216.9c-10.9,0.3-84.6,2.3-93.7,2.5
		c-8.2,0.6-16.4,1.2-24.6,1.4c-4.9,0.1-9.9,0.2-14.8-0.2c-2.1-0.2-4.2-0.3-6.2-1.2c-3.9-2.4,2.9-4.8,4.4-6.3c2.4-1.8,4.3-5,3.1-7.9
		l0-0.5c-0.1,0.2,0,0,0-0.1c0.1-0.5,0.1-1.6,0.1-2.1c0.2-3.2-0.4-18.1,3.8-18.1c1.1,0.1,1.7,0.8,2.4,1.5c0.7,0.9,1.7,1.7,2.8,2
		c4.1,0.9,7.1-4.1,8.8-7.2l0.4,0.2c2.8,1.4,5.1,3.4,7,5.9c1.9,2.3,2.4,5.5,4,7.9c0.2,0.3,0.4,0.4,0.4,0.4c0.6-0.4,0.8-1.7,1-2.5
		c0.9-4.4,1-8.9,1.1-13.4c1.1-2.6,2.2-5.3,3.3-7.9c1.7-3.5,2.9-7.4,5.5-10.5c0.6-0.6,1.5-0.6,2.1,0.1c0.8,0.9,1.7,1.6,2.8,2.2
		c2.5,1.3,5.3,0.8,7.8-0.3l1.9-0.8c1-0.4,2.5-1.2,3.6-0.2c0.8,1,0.6,2.4,0.5,3.4c-0.1,1.4-0.1,2.8,0.2,4.1c1,6,6.4,2.1,10.2,2.9
		c3.3,1.3-0.1,4.2,6,4.8c4.2,0.7,16.6-2.1,12.7,6c-0.3,0.6-0.4,1.3-0.2,1.5c0.2,0.3,0.9,0.4,1.5,0.4c1.3,0,2.7-0.2,4.1-0.5
		c4.2-0.6,8.6-2.3,12.9-0.6c3.1,1.6,2,5.8,0.9,8.3c-0.9,2.5-3,4.9-2.8,7.6c0.6,4.3,6.4,4.7,9.9,4.7l-0.3,0.1c2-1.3,4-2.5,6.1-3.5
		c1.3-0.6,2.7-1.4,4.3-1.3c3.3,0.8-2.9,6.4,1.9,5.6c4-0.8,7.6-2.8,11.5-4.1c1.4-0.4,2.9-1.1,4.2-0.5c0.7,0.6,0.3,1.7,0.3,2.5
		c-1.1,5.5-5.7,9.6-9.9,12.9l-0.4,0.3l-0.2,0.1C279.9,216.8,280,216.8,279.7,216.9L279.7,216.9L279.7,216.9z"/>
</g>
</svg>
