<?xml version="1.0" encoding="UTF-8"?><svg id="Layer_2" xmlns="http://www.w3.org/2000/svg" viewBox="0 0 90.96 90.96"><defs><style>.cls-1{fill:#5eb0e2;}.cls-1,.cls-2,.cls-3,.cls-4,.cls-5,.cls-6{stroke-width:0px;}.cls-2{fill:#7a61a5;}.cls-3{fill:#63b681;}.cls-4{fill:#2e2f37;}.cls-5{fill:#d85935;}.cls-6{fill:#e27466;}</style></defs><g id="Layer_1-2"><rect class="cls-4" width="90.96" height="90.96" rx="12" ry="12"/><path class="cls-5" d="m30.17,8.54s-5.95,0-7.93,7.71c-1.98,7.71,2.18,12.34,2.18,12.34,0,0,.99,1.98,4.16,3.53s15.27.88,15.27.88V8.54h-13.68Z"/><path class="cls-6" d="m57.64,33.12s5.95-.03,7.9-7.75c1.95-7.72-2.23-12.33-2.23-12.33,0,0-1-1.98-4.18-3.5-3.18-1.53-15.27-.8-15.27-.8l.1,24.45,13.68-.07Z"/><path class="cls-2" d="m30.17,33.14s-5.95,0-7.93,7.71c-1.98,7.71,2.18,12.34,2.18,12.34,0,0,.99,1.98,4.16,3.53s15.27.88,15.27.88v-24.46h-13.68Z"/><path class="cls-3" d="m44.22,57.73h-13.19s-4.27.62-6.32,3.71-2.6,5.98-2.6,5.98c0,0-.61,3.56,0,5.57.52,1.69.74,3.71,2.23,5.16s2.04,2.48,4.09,3.51,7.45.8,8.4.49,2.84-.49,6.28-4.62c2.68-3.22,1.12-19.81,1.12-19.81Z"/><ellipse class="cls-1" cx="54.95" cy="45.77" rx="10.77" ry="11.96"/></g></svg>