<?xml version="1.0" encoding="utf-8"?>
<!-- Generator: Adobe Illustrator 28.0.0, SVG Export Plug-In . SVG Version: 6.00 Build 0)  -->
<svg version="1.1" id="Layer_2_00000026157997147215988270000007202898322629259922_"
	 xmlns="http://www.w3.org/2000/svg" xmlns:xlink="http://www.w3.org/1999/xlink" x="0px" y="0px" viewBox="0 0 473.1 352.7"
	 style="enable-background:new 0 0 473.1 352.7;" xml:space="preserve">
<style type="text/css">
	.st0{fill:#979797;}
	.st1{fill:#CACACA;}
	.st2{fill:#43A75B;}
	.st3{fill:#6FBD44;}
</style>
<g id="gode">
	<path class="st0" d="M29.5,217.2c0.1,1.1,9.9,6.4,11,7c17,9,75.6,21.7,207.1,16c132.6-5.7,168.9-25,196.9-40"/>
	
		<ellipse transform="matrix(0.9988 -4.919842e-02 4.919842e-02 0.9988 -9.6298 11.8813)" class="st1" cx="236.5" cy="201.6" rx="230.9" ry="24.2"/>
	<path class="st2" d="M112.2,194.6c0.7-1.2,2.2-1.9,3.6-1.8c7.3,0.4,25.4,1.9,27,7c1.1,3.2,0.9,5.5,0.6,6.8c-0.2,1,0,2.1,0.6,2.9
		c1.1,1.5,2.8,3.2,2.8,0.5c0-2.4,1.2,0.1,2.2,2.5c1,2.4-0.8,5.3-2.8,4.4c0,0-0.1,0-0.1-0.1c-5.6-2.8-9.1-0.9-9.8-0.5
		c-0.1,0.1-0.2,0.1-0.3,0.2c-1.9,0.9-21.7,10.1-13.3,0.7c4.9-5.5-5.2-9.7-11.8-11.9c-2.3-0.8-3.3-3.3-2-5.4L112.2,194.6L112.2,194.6
		z"/>
	<path class="st3" d="M197.2,217.1c-0.6,1-1.7,1.6-3,1.5c-6.2-0.4-21.4-1.9-23.1-6.1c-1-2.7-1-4.6-0.8-5.7c0.1-0.8-0.1-1.8-0.6-2.4
		c-1-1.3-2.5-2.7-2.4-0.4c0.1,2-1-0.1-2-2.1c-0.9-2,0.4-4.4,2.1-3.6c0,0,0.1,0,0.1,0.1c4.9,2.4,7.7,0.9,8.3,0.5
		c0.1,0,0.2-0.1,0.2-0.1c1.6-0.7,17.8-8.1,11.1-0.4c-3.9,4.4,4.9,8.1,10.4,9.9c2,0.7,2.9,2.8,1.9,4.5L197.2,217.1L197.2,217.1z"/>
	<path class="st3" d="M317.2,197.8c-0.7,1.1-1.9,1.9-3.1,2c-5.9,0.6-20.2,1.6-21.1-2.5c-0.6-2.6-0.2-4.6,0.2-5.8
		c0.3-0.9,0.2-1.8-0.2-2.4c-0.8-1.1-2-2.4-2.2-0.1c-0.2,2.1-1,0.1-1.5-1.8c-0.5-1.9,1.2-4.7,2.7-4.1c0,0,0.1,0,0.1,0
		c4.3,1.7,7.3-0.4,7.8-0.8c0.1-0.1,0.2-0.1,0.2-0.2c1.7-1,18.4-11.4,10.7-2.3c-4.4,5.3,3.3,7.7,8.4,8.7c1.8,0.4,2.3,2.4,1.1,4.4
		L317.2,197.8L317.2,197.8z"/>
</g>
</svg>
