<?xml version="1.0" encoding="UTF-8"?><svg id="Layer_2" xmlns="http://www.w3.org/2000/svg" viewBox="0 0 508.38 508.38"><defs><style>.cls-1{fill:#eb9d3f;stroke-width:0px;}</style></defs><g id="Layer_1-2"><path class="cls-1" d="m69.23,93.63l10.99-10.91,26.6,26.81,17.15-17.02,8.69,8.76-28.14,27.93-35.29-35.57Z"/><path class="cls-1" d="m124.67,84.82c-2.92-4.7-3.74-9.57-2.46-14.59,1.28-5.02,4.62-9.21,10.02-12.56,6.17-3.83,11.95-4.94,17.33-3.32,4.33,1.31,7.8,4.07,10.42,8.29,2.95,4.74,3.79,9.61,2.52,14.59-1.26,4.98-4.67,9.2-10.23,12.65-4.96,3.08-9.74,4.31-14.37,3.69-5.69-.78-10.11-3.7-13.24-8.75Zm11.83-7.39c1.71,2.75,3.53,4.44,5.46,5.06,1.93.63,3.74.42,5.42-.63,1.7-1.06,2.7-2.58,2.99-4.55.29-1.98-.46-4.4-2.24-7.26-1.66-2.67-3.45-4.32-5.36-4.94-1.92-.62-3.69-.43-5.31.58-1.72,1.07-2.73,2.62-3.03,4.64-.3,2.02.39,4.39,2.08,7.1Z"/><path class="cls-1" d="m157.26,29.13l13.46-4.59,8.34,24.48,5.95-14.76,16.21-5.52-8.22,16.24,20.65,17.88-14.84,5.06-11.65-11.4-3.31,6.53,3.04,8.93-13.46,4.59-16.16-47.43Z"/><path class="cls-1" d="m225.48,37.28l-13.37-.05c.26-2.36.8-4.25,1.61-5.68.81-1.42,2.04-2.71,3.71-3.86,1.2-.83,2.89-1.55,5.07-2.16s4.57-1.05,7.15-1.31c4.15-.42,7.5-.53,10.07-.32s4.76.97,6.59,2.27c1.28.9,2.36,2.25,3.23,4.05.87,1.8,1.39,3.55,1.56,5.25l1.62,15.95c.17,1.7.42,3.02.73,3.96.31.94.91,2.12,1.79,3.55l-12.99,1.32c-.62-.88-1.03-1.55-1.24-2.02-.21-.47-.45-1.22-.71-2.25-1.64,1.93-3.31,3.36-5.03,4.29-2.35,1.25-5.14,2.03-8.38,2.36-4.31.44-7.68-.23-10.11-2-2.44-1.77-3.8-4.12-4.1-7.04-.28-2.74.3-5.08,1.73-7.01,1.43-1.93,4.27-3.55,8.51-4.85,5.09-1.57,8.38-2.64,9.88-3.22,1.5-.58,3.08-1.29,4.73-2.15-.17-1.7-.64-2.85-1.42-3.46-.77-.61-2.04-.82-3.81-.64-2.27.23-3.93.77-4.99,1.61-.83.66-1.43,1.79-1.82,3.41Zm12.74,6.06c-1.83.87-3.76,1.68-5.77,2.41-2.74,1.03-4.44,1.95-5.11,2.75-.7.83-.99,1.72-.9,2.67.11,1.09.58,1.94,1.41,2.55.83.62,1.98.85,3.46.7,1.54-.16,2.94-.67,4.19-1.56,1.25-.88,2.1-1.89,2.54-3.02s.58-2.56.41-4.28l-.22-2.21Z"/><path class="cls-1" d="m263.72,10.03l13.91.93-3.34,50-13.92-.93,3.34-50Z"/><path class="cls-1" d="m314.32,31.6l12.66,3.05-8.04,33.33-.34,1.57c-.53,2.21-1.51,4.21-2.94,5.99-1.42,1.78-3.07,3.1-4.93,3.96-1.86.86-4.06,1.28-6.6,1.26-2.54-.03-5.36-.41-8.46-1.16-7.09-1.71-11.7-3.95-13.83-6.71-2.13-2.77-2.77-5.93-1.91-9.5.11-.44.27-1.04.5-1.78l12.76,4.66c.04,1.3.34,2.26.92,2.89.83.93,2,1.57,3.51,1.94,1.95.47,3.53.3,4.75-.51,1.21-.81,2.13-2.51,2.76-5.1l1.29-5.35c-1.71,1.25-3.31,2.07-4.81,2.46-2.35.61-4.73.62-7.15.03-4.72-1.14-8.03-4.12-9.94-8.94-1.36-3.42-1.45-7.53-.29-12.34,1.33-5.49,3.66-9.36,7.02-11.6,3.35-2.24,7.18-2.84,11.47-1.8,2.75.66,4.9,1.67,6.46,3.03s2.85,3.3,3.89,5.82l1.26-5.22Zm-16.85,14.04c-.61,2.55-.53,4.57.26,6.06s2.07,2.45,3.84,2.88c1.68.41,3.25.11,4.7-.89,1.45-1,2.48-2.78,3.1-5.35.62-2.57.5-4.68-.37-6.33-.87-1.65-2.17-2.68-3.89-3.1-1.73-.42-3.26-.12-4.59.88-1.33,1-2.35,2.96-3.05,5.86Z"/><path class="cls-1" d="m358.15,89.09l-11.61-5.82,2.63-5.26c-2.81,1.29-5.33,1.95-7.55,1.99-2.22.03-4.62-.59-7.18-1.88-3.42-1.71-5.59-4.08-6.51-7.11s-.31-6.66,1.82-10.92l10.35-20.66,12.5,6.26-8.94,17.84c-1.02,2.04-1.37,3.67-1.04,4.91s1.17,2.19,2.54,2.88c1.49.75,2.99.79,4.51.12,1.52-.67,3.02-2.48,4.5-5.43l7.83-15.62,12.44,6.23-16.26,32.45Z"/><path class="cls-1" d="m385.08,64.38l11.2,8.25-21.52,29.23-11.2-8.25,21.52-29.24Zm8.18-11.12l11.2,8.25-5.61,7.62-11.2-8.25,5.61-7.62Z"/><path class="cls-1" d="m443.22,98.34l-36.06,34.79-9.04-9.37,3.86-3.73c-2.91.27-5.17.14-6.79-.39-2.15-.72-4.07-1.96-5.78-3.73-3.43-3.56-4.7-7.58-3.81-12.07.89-4.49,3.28-8.6,7.15-12.33,4.33-4.18,8.64-6.34,12.94-6.48,4.3-.14,7.99,1.39,11.07,4.58,1.5,1.56,2.6,3.23,3.31,5,.7,1.78,1,3.66.9,5.66l12.5-12.06,9.75,10.11Zm-32.61,12.08c2.05-1.98,3.16-3.89,3.33-5.73.17-1.84-.39-3.43-1.67-4.76-1.12-1.17-2.55-1.67-4.28-1.53-1.73.15-3.73,1.32-6.01,3.52-2.13,2.06-3.3,3.97-3.51,5.74-.21,1.77.26,3.25,1.42,4.45,1.23,1.28,2.76,1.86,4.59,1.75,1.82-.11,3.87-1.26,6.13-3.44Z"/><path class="cls-1" d="m444.15,164.76l-14.38-23.9c-1.79,1.37-2.9,2.74-3.34,4.12-.65,1.96-.42,3.87.69,5.73.71,1.17,1.67,2.11,2.89,2.81.76.42,1.83.72,3.21.9l5.99,12.4c-4.21.08-7.75-.73-10.63-2.46-2.88-1.72-5.75-4.95-8.61-9.7-2.48-4.12-3.85-7.71-4.11-10.77-.26-3.06.41-6.13,2-9.2,1.59-3.07,4.1-5.64,7.51-7.7,4.86-2.93,9.73-3.74,14.61-2.43,4.88,1.3,8.97,4.7,12.27,10.18,2.68,4.45,4.12,8.37,4.33,11.76s-.57,6.53-2.31,9.41c-1.75,2.89-4.67,5.56-8.77,8.03l-1.35.81Zm-1.59-15.56c2.16-1.62,3.44-3.23,3.83-4.84.39-1.61.09-3.23-.9-4.87-1.14-1.89-2.8-2.95-4.99-3.18-1.37-.16-3.04.22-5.02,1.14l7.07,11.74Z"/><path class="cls-1" d="m467.46,164.69l4,12.32-5.62,1.83c2.9,1.1,5.14,2.43,6.74,3.99,1.6,1.56,2.84,3.7,3.72,6.41,1.19,3.66,1.03,6.88-.47,9.66-1.5,2.78-4.53,4.91-9.08,6.38l-21.94,7.13-4.32-13.29,18.98-6.17c2.17-.7,3.57-1.6,4.21-2.7.64-1.09.72-2.37.25-3.82-.52-1.6-1.55-2.71-3.09-3.31-1.54-.6-3.88-.39-7.02.63l-16.58,5.39-4.3-13.23,34.52-11.22Z"/><path class="cls-1" d="m499.36,243.28l-.81,15.46-18.91-1,18.06,17.19-1.08,20.56-17.93-19.25-32.16,17.44,1-19.04,21.13-9.47-7.95-8.43-12.21-.64.81-15.46,50.04,2.63Z"/><path class="cls-1" d="m472.02,340.36l-4.13,2.41-3.18-5.43c-1.73,1.09-3.9,1.76-6.51,2s-5.26-.07-7.95-.92c-5.29-1.68-9.08-4.81-11.35-9.38-2.27-4.57-2.45-9.86-.54-15.88.78-2.45,1.67-4.55,2.68-6.28.69-1.19,1.81-2.62,3.36-4.27l-3.43-5.87,4.25-2.42,3.1,5.53c2.56-1.21,4.97-1.91,7.23-2.1,2.26-.19,4.65.12,7.17.92,5.32,1.69,9.12,4.85,11.42,9.47,2.29,4.62,2.49,9.92.6,15.88-.77,2.43-1.69,4.53-2.75,6.29-.71,1.18-1.83,2.57-3.38,4.16l3.43,5.9Zm-22.51-29.01c-.81.54-1.37,1-1.69,1.41-.59.77-1.05,1.68-1.38,2.73-.68,2.13-.4,4.16.85,6.08,1.24,1.92,3.67,3.45,7.28,4.6,1.11.35,2.44.57,3.99.65l-9.04-15.46Zm13.89,14.34c.77-.42,1.32-.82,1.63-1.2.61-.74,1.09-1.64,1.43-2.7.7-2.19.43-4.26-.8-6.22-1.23-1.96-3.57-3.48-7.02-4.58-1.15-.37-2.58-.62-4.27-.76l9.04,15.46Z"/><path class="cls-1" d="m474.11,362.27l-7.17,12.08-14.93-8.86c.54,1.94.68,3.85.41,5.75-.27,1.89-.96,3.76-2.05,5.6-2.26,3.8-5.49,6.14-9.7,7-4.21.87-8.87-.22-13.99-3.25-3.41-2.02-6.08-4.37-8-7.05-1.92-2.68-2.93-5.4-3.02-8.17-.09-2.77.59-5.38,2.04-7.83,1.24-2.1,2.83-3.75,4.77-4.96,1.48-.89,3.66-1.54,6.51-1.94l-4.62-2.74,6.64-11.2,43.09,25.57Zm-34.51-4.26c-2.69-1.59-4.93-2.24-6.73-1.95-1.8.29-3.17,1.21-4.08,2.76-.85,1.43-.97,2.98-.36,4.66.61,1.67,2.32,3.34,5.12,5,2.47,1.46,4.56,2.06,6.28,1.8,1.72-.26,2.98-1.07,3.78-2.42.96-1.63,1.15-3.31.55-5.06-.59-1.74-2.12-3.34-4.57-4.8Z"/><path class="cls-1" d="m390.82,413.54l19.24-20.19c-1.79-1.36-3.41-2.07-4.86-2.13-2.07-.11-3.84.62-5.34,2.18-.94.99-1.59,2.17-1.95,3.53-.21.84-.21,1.96-.02,3.34l-10.37,9.05c-1.19-4.03-1.34-7.67-.45-10.9.9-3.24,3.25-6.86,7.07-10.87,3.32-3.48,6.42-5.75,9.3-6.81,2.88-1.06,6.02-1.23,9.4-.51,3.39.72,6.52,2.46,9.41,5.21,4.11,3.91,6.18,8.4,6.21,13.45.03,5.05-2.16,9.9-6.57,14.53-3.58,3.76-6.98,6.19-10.2,7.28-3.21,1.09-6.44,1.18-9.69.26s-6.6-3.03-10.07-6.33l-1.14-1.08Zm14.59-5.65c2.13,1.66,4.03,2.46,5.68,2.41,1.65-.05,3.14-.76,4.46-2.15,1.52-1.6,2.11-3.48,1.75-5.65-.21-1.37-1.02-2.88-2.43-4.53l-9.45,9.92Z"/><path class="cls-1" d="m397.11,435.98l-10.81,7.14-3.26-4.93c-.28,3.08-.97,5.6-2.05,7.56-1.08,1.96-2.81,3.72-5.19,5.29-3.21,2.12-6.36,2.83-9.44,2.12-3.08-.71-5.94-3.06-8.58-7.05l-12.72-19.25,11.66-7.71,11.01,16.65c1.26,1.9,2.5,3.01,3.72,3.34,1.23.32,2.47.06,3.75-.78,1.41-.93,2.2-2.22,2.37-3.86.17-1.64-.66-3.84-2.48-6.6l-9.61-14.54,11.6-7.67,20.02,30.28Z"/><path class="cls-1" d="m357.47,476.42l-13.04,4.86-6.45-17.29c-1.09,2.5-2.36,4.47-3.81,5.91s-3.38,2.61-5.77,3.5c-3.54,1.32-6.74,1.29-9.58-.11-2.84-1.4-5.1-4.33-6.76-8.79l-8.06-21.62,13.1-4.89,6.97,18.7c.8,2.13,1.75,3.5,2.88,4.09,1.12.59,2.4.62,3.83.09,1.58-.59,2.64-1.67,3.17-3.23.54-1.56.23-3.89-.93-6.99l-6.09-16.33,13.03-4.86,17.51,46.95Z"/><path class="cls-1" d="m289.02,470.21l13.37-.32c-.2,2.37-.68,4.28-1.45,5.72-.77,1.44-1.97,2.77-3.6,3.97-1.17.86-2.84,1.63-5.01,2.3-2.16.67-4.53,1.18-7.11,1.51-4.13.54-7.49.74-10.06.6-2.57-.14-4.78-.83-6.65-2.08-1.31-.86-2.42-2.18-3.34-3.96-.92-1.78-1.49-3.51-1.71-5.21l-2.07-15.9c-.22-1.69-.5-3.01-.84-3.94-.34-.93-.97-2.1-1.88-3.5l12.95-1.68c.64.86,1.07,1.52,1.29,1.99.22.46.48,1.21.77,2.23,1.58-1.97,3.22-3.45,4.91-4.43,2.31-1.31,5.08-2.18,8.31-2.6,4.29-.56,7.68.01,10.17,1.71,2.48,1.7,3.92,4.01,4.29,6.92.36,2.73-.15,5.09-1.53,7.06-1.38,1.97-4.16,3.67-8.37,5.09-5.04,1.71-8.3,2.88-9.78,3.49-1.48.62-3.04,1.38-4.67,2.28.22,1.69.73,2.83,1.51,3.42s2.06.77,3.83.54c2.26-.29,3.91-.88,4.94-1.75.81-.68,1.38-1.83,1.72-3.46Zm-12.91-5.7c1.81-.92,3.71-1.78,5.7-2.57,2.71-1.11,4.38-2.08,5.04-2.89.67-.85.95-1.74.82-2.69-.14-1.08-.63-1.92-1.48-2.51-.85-.59-2-.79-3.47-.6-1.54.2-2.92.76-4.14,1.68-1.23.92-2.04,1.95-2.46,3.09-.41,1.15-.51,2.58-.29,4.29l.29,2.2Z"/><path class="cls-1" d="m256.84,485.59l-14.43-1.15-5.19-23.49-9.12,22.35-13.99-1.12,18.27-34.96,12.3.98,12.16,37.39Z"/><path class="cls-1" d="m204.91,480.16l-12.39-3.79,1.73-5.65c-2.56,1.74-4.94,2.82-7.14,3.23-2.2.41-4.66.2-7.38-.64-3.68-1.13-6.23-3.11-7.64-5.93-1.41-2.83-1.41-6.53-.01-11.1l6.76-22.06,13.37,4.1-5.85,19.08c-.67,2.18-.74,3.84-.21,5,.53,1.15,1.52,1.95,2.98,2.4,1.61.49,3.11.28,4.48-.63s2.55-2.95,3.52-6.11l5.11-16.67,13.3,4.08-10.63,34.71Z"/><path class="cls-1" d="m122.18,461.11l-11.37-8.93,2.29-33.45-17.13,21.8-11.47-9.02,30.96-39.4,11.47,9.02-2.25,33.23,17-21.63,11.45,9-30.96,39.4Z"/><path class="cls-1" d="m73.07,420.27l-9.57-13.05,22.41-30.41-35.66,12.34-9.29-12.67,51.41-14.62,9.92,13.54-29.22,44.89Z"/><path class="cls-1" d="m61.75,287.1l11.25,40.22c-4.1.65-8.23.3-12.38-1.06s-9.51-4.58-16.07-9.68c-4.02-3.11-6.94-5-8.76-5.68-1.82-.67-3.41-.82-4.77-.44-1.47.41-2.57,1.31-3.31,2.68-.74,1.38-.88,2.89-.42,4.54.48,1.71,1.41,2.96,2.79,3.75,1.38.79,3.48.98,6.31.6l2.67,13.73c-3.92.53-7.14.39-9.65-.42-2.51-.81-4.69-2.34-6.53-4.58-1.85-2.24-3.4-5.62-4.67-10.14-1.32-4.72-1.81-8.54-1.47-11.46.34-2.92,1.42-5.45,3.22-7.57,1.81-2.13,4.09-3.58,6.86-4.35,2.94-.82,5.99-.75,9.15.23,3.16.97,6.98,3.28,11.45,6.93,2.62,2.18,4.43,3.62,5.43,4.32,1,.7,2.28,1.5,3.83,2.39l-5.86-20.93,10.93-3.06Z"/><path class="cls-1" d="m50.74,260.27l1.17,25.33-11.44.53-31.28-23.95-.56-12.12,30.76-1.42-.29-6.28,10.79-.5.29,6.28,9.36-.43.56,12.12-9.35.43Zm-10.79.5l-15.75.73,16.37,12.66-.62-13.39Z"/><path class="cls-1" d="m34.65,235.15c-9.37-1.69-15.63-4.56-18.76-8.61-3.14-4.05-4.08-9.53-2.83-16.44.6-3.32,1.5-5.97,2.7-7.95,1.2-1.98,2.58-3.53,4.14-4.64s3.12-1.92,4.71-2.43c1.59-.51,3.39-.83,5.4-.95,3.84-.25,7.76-.02,11.75.7,8.95,1.61,15.22,4.31,18.82,8.09,3.6,3.78,4.74,9.36,3.4,16.76-.75,4.15-2.02,7.38-3.8,9.7-1.78,2.32-4.1,4.06-6.95,5.24-2.03.86-4.68,1.34-7.95,1.43-3.27.09-6.81-.2-10.62-.89Zm2.49-13.58c6.28,1.13,10.67,1.35,13.17.66,2.5-.7,3.94-2.1,4.32-4.21.25-1.39-.02-2.68-.81-3.88-.79-1.2-2.2-2.23-4.22-3.09s-5.26-1.7-9.73-2.5c-6.55-1.18-11.05-1.42-13.5-.72-2.45.7-3.88,2.17-4.28,4.38-.41,2.26.45,4.11,2.56,5.53,2.12,1.42,6.28,2.7,12.49,3.82Z"/><path class="cls-1" d="m44.49,186.32c-8.75-3.77-14.19-7.98-16.33-12.63-2.14-4.65-1.82-10.2.95-16.65,1.33-3.1,2.81-5.48,4.43-7.14,1.62-1.66,3.31-2.85,5.08-3.58s3.48-1.16,5.14-1.3c1.66-.14,3.49-.04,5.47.29,3.8.62,7.57,1.73,11.29,3.33,8.35,3.59,13.86,7.64,16.51,12.13,2.66,4.49,2.5,10.19-.48,17.1-1.67,3.87-3.63,6.74-5.89,8.59s-4.92,3.03-7.96,3.53c-2.17.38-4.86.25-8.07-.4s-6.59-1.74-10.15-3.27Zm5.49-12.67c5.86,2.52,10.09,3.73,12.68,3.62,2.59-.11,4.31-1.15,5.16-3.12.56-1.3.59-2.62.09-3.96-.5-1.34-1.64-2.66-3.41-3.96s-4.74-2.84-8.91-4.63c-6.11-2.63-10.44-3.88-12.99-3.75-2.55.13-4.27,1.23-5.16,3.3-.91,2.11-.5,4.1,1.25,5.97,1.74,1.87,5.51,4.05,11.31,6.54Z"/></g></svg>