<?xml version="1.0" encoding="UTF-8"?><svg id="Layer_2" xmlns="http://www.w3.org/2000/svg" viewBox="0 0 76.74 76.45"><defs><style>.cls-1,.cls-2,.cls-3,.cls-4,.cls-5{stroke-width:0px;}.cls-2{fill:#5a3229;}.cls-3{fill:#ab714a;}.cls-4{fill:#98714a;}.cls-5{fill:#fcfbfa;}</style></defs><g id="Layer_1-2"><path class="cls-1" d="m10.35,45.05l.37-1.88c-.32.76-.42,1.17-.42,1.49,0,.14.02.26.05.39Z"/><path class="cls-3" d="m38.18,61.58c-2.36,0-5.93-.22-9.9-2.02-1.3-.59-4.34-1.98-7.04-5.03-.81-.92-1.1-1.44-1.5-2.16-.42-.76-1-1.8-2.5-3.85-.5-.68-.91-1.22-1.28-1.7-1.19-1.55-1.68-2.19-1.74-3.37-.06-1.03.27-1.57.73-2.31.38-.62.85-1.39,1.28-2.73.46-1.43.48-2.25.5-3.21.02-.93.04-1.98.5-3.78.4-1.6.81-3.25,2.02-5.04.55-.82.94-1.16,1.7-1.85.52-.47,1.23-1.1,2.32-2.17l.09.09-.09-.09c1.48-1.46,2.19-2.28,2.65-2.82.53-.62.73-.85,1.37-1.2,1.05-.57,1.7-.59,2.87-.63.91-.03,2.15-.07,4.17-.38,1.45-.23,2.34-.44,3.06-.62.99-.24,1.65-.4,2.96-.38,1.04.02,2.99.05,5.05,1.01.94.44,1.35.81,1.98,1.36.46.41,1.04.93,2.04,1.65,1.14.82,1.76,1.15,2.49,1.53.63.33,1.34.7,2.51,1.47,2.81,1.83,4.22,2.75,5.04,4.04.63.99.88,1.95,1.02,8.06.1,4.29.15,6.45,0,8.01-.41,4.39-.62,6.59-2.02,9.05-2.36,4.16-6.39,5.9-9.06,7.05-4.4,1.9-8.22,1.98-10.05,2.01-.34,0-.73,0-1.16,0h-.01Zm1.93-45.02c-1.14,0-1.76.15-2.67.38-.72.18-1.61.4-3.08.62-2.04.32-3.29.36-4.2.39-1.17.04-1.76.06-2.76.6-.6.33-.78.53-1.3,1.14-.47.54-1.18,1.37-2.67,2.84-1.09,1.07-1.8,1.71-2.33,2.18-.77.69-1.12,1-1.66,1.8-1.18,1.75-1.59,3.38-1.98,4.96-.45,1.78-.47,2.81-.49,3.73-.02.97-.04,1.82-.51,3.28-.44,1.37-.92,2.16-1.31,2.79-.45.73-.74,1.22-.69,2.17.06,1.1.54,1.73,1.69,3.23.37.48.79,1.02,1.28,1.7,1.51,2.06,2.09,3.11,2.52,3.87.41.73.68,1.22,1.47,2.12,2.67,3.02,5.67,4.38,6.96,4.97,4.63,2.11,8.74,2.03,10.95,1.99,1.82-.03,5.59-.11,9.95-1.99,2.64-1.14,6.62-2.86,8.94-6.95,1.37-2.42,1.58-4.6,1.98-8.95.15-1.56.1-3.7,0-7.99-.14-6.05-.38-6.98-.98-7.94-.79-1.24-2.18-2.15-4.96-3.96-1.16-.76-1.87-1.13-2.49-1.45-.73-.39-1.37-.72-2.52-1.55-1.01-.73-1.6-1.25-2.06-1.67-.61-.54-1.01-.9-1.92-1.32-2.01-.94-3.85-.97-4.95-.99h-.22.01Z"/><path class="cls-4" d="m38.12,60.82c-2.26,0-5.7-.21-9.5-1.95-1.25-.57-4.17-1.9-6.77-4.84-.79-.89-1.07-1.39-1.45-2.09-.4-.72-.95-1.71-2.38-3.66-.47-.65-.88-1.17-1.22-1.62-1.12-1.46-1.63-2.12-1.69-3.29-.06-1.02.28-1.58.71-2.28.36-.59.8-1.31,1.21-2.58.43-1.35.45-2.12.47-3.03.02-.89.04-1.9.48-3.64.39-1.54.78-3.12,1.95-4.85.54-.8.91-1.13,1.64-1.79.5-.44,1.18-1.05,2.21-2.07,1.41-1.39,2.08-2.17,2.53-2.69.5-.59.71-.83,1.35-1.17,1.03-.56,1.66-.58,2.8-.62.86-.03,2.04-.07,3.97-.37,1.38-.22,2.23-.42,2.91-.59.95-.23,1.59-.39,2.86-.37,1.01.02,2.88.05,4.88.98.91.43,1.33.8,1.92,1.32.44.39.99.88,1.94,1.57,1.08.78,1.67,1.09,2.36,1.45.6.32,1.28.67,2.41,1.41,2.7,1.76,4.06,2.64,4.85,3.9.61.97.86,1.89.99,7.77.09,4.1.14,6.16,0,7.67-.38,4.07-.59,6.32-1.94,8.7-2.28,4.01-6.15,5.68-8.72,6.79-4.23,1.83-7.89,1.9-9.65,1.93-.33,0-.7,0-1.11,0h0Zm1.84-43c-1.07,0-1.63.14-2.52.36-.69.17-1.55.38-2.95.6-1.95.3-3.15.34-4.03.37-1.1.04-1.65.05-2.58.56-.56.3-.72.49-1.21,1.06-.45.52-1.13,1.31-2.56,2.72h0c-1.04,1.03-1.73,1.64-2.23,2.09-.73.65-1.06.95-1.56,1.69-1.11,1.66-1.5,3.2-1.88,4.7-.42,1.68-.44,2.67-.46,3.53-.02.9-.04,1.75-.5,3.17-.43,1.33-.89,2.08-1.26,2.69-.43.7-.69,1.13-.64,2,.06,1.01.51,1.6,1.59,3.01.34.45.75.98,1.23,1.63,1.45,1.98,2.01,2.98,2.42,3.71.39.69.64,1.15,1.39,2,2.53,2.86,5.38,4.16,6.6,4.71,4.4,2,8.3,1.93,10.4,1.89,1.73-.03,5.32-.1,9.46-1.89,2.5-1.08,6.28-2.72,8.48-6.58,1.3-2.28,1.49-4.36,1.88-8.5.14-1.48.09-3.53,0-7.61-.13-5.75-.35-6.63-.92-7.51-.74-1.16-2.06-2.03-4.7-3.74-1.11-.72-1.78-1.07-2.37-1.38-.71-.37-1.31-.69-2.42-1.49-.97-.7-1.53-1.2-1.98-1.6-.57-.51-.95-.84-1.8-1.24-1.9-.89-3.64-.91-4.67-.93h-.22v-.02Z"/><path class="cls-4" d="m38.88,58.83c-2.73,0-4.89-.45-6.07-.77-3.04-.81-6.82-1.83-9.07-5.05-.52-.74-.8-1.38-1.07-2-.41-.92-.79-1.79-1.92-2.99-.29-.31-.6-.6-.89-.87-.96-.91-1.86-1.76-2.14-3.19-.13-.66-.08-1.21,0-2.03h0c.11-1.12.33-1.77.55-2.39.16-.46.33-.94.45-1.62.16-.89.1-1.32.03-1.82s-.14-1.06-.04-2.17c.07-.76.23-2.33,1.01-4.04.65-1.43,1.44-2.3,3.02-4.03.57-.63.86-.9,1.26-1.28.38-.36.85-.8,1.75-1.73.92-.94,1.47-1.55,1.83-1.94.56-.61.73-.79,1.19-1.08.77-.47,1.23-.52,2.34-.64.62-.07,1.47-.17,2.71-.37,1.53-.26,2.5-.5,3.21-.67,1.06-.26,1.65-.41,2.82-.33,1.89.12,3.35.69,4.04,1.01.96.45,1.37.82,2,1.37.46.41,1.03.92,2.02,1.64,2.14,1.55,4.13,2.56,4.98,2.99,1.33.67,2.13.98,2.66,1.18.66.25.96.37,1.38.85.58.67.93,1.48,1.03,7.08.02,1.35,0,2.04,0,2.85,0,.75-.02,1.59,0,3.15,0,1.39.03,2.27.05,2.91.03,1.08.03,1.4-.05,2.1-.13,1.02-.57,3.66-2.02,6.05-2.18,3.6-5.72,5.08-8.06,6.05-3.26,1.36-6.39,1.78-9.01,1.78h0Zm-21.04-16.89h.12v.02c-.08.83-.13,1.33,0,1.96.27,1.35,1.1,2.14,2.07,3.05.29.28.6.57.9.88,1.16,1.22,1.57,2.16,1.96,3.06.27.61.54,1.23,1.05,1.96,2.19,3.14,5.93,4.15,8.93,4.95,2.29.61,8.33,1.75,14.92-.99,2.31-.96,5.81-2.42,7.94-5.95,1.42-2.35,1.86-4.94,1.98-5.95.08-.69.08-1.01.05-2.07-.02-.65-.04-1.53-.05-2.92,0-1.56,0-2.41,0-3.16,0-.8.02-1.49,0-2.84-.09-5.5-.45-6.31-.97-6.92-.37-.43-.62-.53-1.28-.78-.54-.21-1.34-.51-2.68-1.19-.86-.43-2.86-1.45-5.02-3.01-1-.73-1.58-1.24-2.04-1.65-.61-.54-1.01-.9-1.94-1.33-.68-.32-2.1-.87-3.96-.99-1.13-.07-1.7.07-2.74.32-.71.17-1.69.41-3.23.67-1.25.21-2.1.31-2.72.38-1.1.12-1.51.17-2.23.61-.43.26-.58.42-1.14,1.03-.36.4-.92,1-1.84,1.95-.9.92-1.37,1.37-1.75,1.73-.4.38-.68.65-1.24,1.26-1.56,1.72-2.34,2.58-2.98,3.97-.77,1.67-.92,3.22-.99,3.96-.1,1.08-.03,1.62.04,2.11.07.52.13.97-.04,1.9-.13.69-.3,1.18-.46,1.66-.22.64-.43,1.25-.54,2.33h-.12,0Z"/><path class="cls-3" d="m38.53,57.56c-2.55,0-4.58-.43-5.69-.72-2.85-.77-6.39-1.72-8.49-4.74-.49-.7-.75-1.3-1-1.88-.38-.87-.74-1.68-1.79-2.8-.28-.29-.56-.56-.83-.82-.9-.85-1.74-1.66-2.01-3-.12-.62-.08-1.13,0-1.9h0c.1-1.06.31-1.67.52-2.26.15-.44.31-.89.42-1.52.15-.83.1-1.24.03-1.71-.06-.47-.13-1-.03-2.04.07-.71.21-2.19.95-3.79.61-1.34,1.35-2.16,2.83-3.78.53-.59.8-.85,1.18-1.2.35-.34.79-.75,1.63-1.62.86-.89,1.38-1.45,1.72-1.83.52-.57.68-.75,1.12-1.01.73-.44,1.16-.49,2.19-.6.58-.07,1.37-.15,2.53-.35,1.43-.24,2.34-.47,3-.63,1-.24,1.55-.38,2.64-.31,1.77.11,3.13.64,3.79.95.9.42,1.29.77,1.87,1.29.43.38.96.86,1.89,1.54,2,1.46,3.87,2.4,4.66,2.81,1.24.63,1.99.92,2.49,1.11.62.24.9.35,1.29.8.54.63.88,1.39.97,6.65.02,1.27,0,1.92,0,2.67,0,.7-.02,1.49,0,2.96,0,1.3.03,2.13.05,2.74.02.98.03,1.31-.05,1.97-.12.96-.54,3.44-1.89,5.68-2.04,3.38-5.35,4.77-7.54,5.68-3.05,1.28-5.98,1.67-8.43,1.67h-.02Zm-19.57-15.85h0c-.07.79-.12,1.26,0,1.84.25,1.26,1.03,2,1.93,2.86.28.26.56.53.84.83,1.08,1.15,1.47,2.02,1.84,2.87.25.57.51,1.16.98,1.84,2.05,2.95,5.54,3.89,8.35,4.64,2.15.58,7.8,1.64,13.96-.93,2.16-.9,5.43-2.27,7.43-5.58,1.33-2.2,1.74-4.64,1.85-5.58.08-.64.07-.94.05-1.94-.02-.61-.04-1.44-.05-2.74,0-1.47,0-2.26,0-2.96,0-.75.02-1.4,0-2.67-.09-5.16-.42-5.92-.91-6.49-.35-.4-.58-.49-1.19-.73-.5-.19-1.26-.48-2.51-1.12-.8-.41-2.68-1.35-4.7-2.83-.94-.68-1.48-1.17-1.91-1.55-.57-.51-.95-.85-1.81-1.25-.64-.3-1.97-.82-3.7-.93-1.05-.07-1.59.07-2.57.3-.67.16-1.58.39-3.02.63-1.17.2-1.96.29-2.55.35-1.03.12-1.41.16-2.09.57-.41.24-.54.4-1.06.96-.34.38-.86.94-1.72,1.83-.84.87-1.29,1.29-1.64,1.63-.37.35-.64.61-1.16,1.19-1.46,1.61-2.19,2.42-2.79,3.72-.72,1.57-.86,3.02-.93,3.72-.1,1.01-.03,1.52.03,1.98.07.49.12.92-.03,1.79-.12.65-.28,1.11-.43,1.56-.21.6-.41,1.17-.5,2.19h.01Z"/><path class="cls-3" d="m38.87,54.44c-2.37,0-4.26-.38-5.29-.64-2.65-.68-5.96-1.53-7.93-4.23-.46-.63-.7-1.16-.94-1.68-.35-.75-.67-1.46-1.63-2.43-.25-.26-.51-.49-.76-.72-.85-.77-1.64-1.49-1.9-2.72-.12-.57-.07-1.03,0-1.73h0c.09-.94.29-1.49.48-2.02.14-.38.28-.77.38-1.32.14-.71.09-1.04.03-1.46s-.13-.9-.03-1.83c.06-.63.2-1.95.89-3.39.58-1.2,1.27-1.93,2.64-3.37.49-.52.75-.75,1.09-1.06.32-.29.73-.66,1.51-1.43.8-.78,1.27-1.27,1.58-1.61.49-.52.64-.67,1.06-.91.7-.4,1.13-.45,2.07-.55.54-.06,1.27-.14,2.34-.31,1.32-.21,2.16-.41,2.77-.55.93-.22,1.45-.34,2.48-.28,1.66.1,2.94.57,3.55.85.85.38,1.23.71,1.76,1.16.39.34.89.76,1.74,1.35,1.84,1.28,3.56,2.11,4.3,2.46,1.14.55,1.83.81,2.29.97.59.22.87.32,1.25.74.52.58.85,1.27.93,5.96.02,1.12,0,1.7,0,2.36,0,.62-.02,1.32,0,2.61,0,1.15.03,1.89.04,2.41.02.87.03,1.17-.05,1.76-.11.86-.5,3.07-1.77,5.07-1.91,3.02-5,4.25-7.04,5.06-2.84,1.13-5.57,1.48-7.85,1.48h.01Zm.34-33.76c-.66,0-1.11.1-1.86.28-.62.15-1.47.34-2.8.56-1.08.17-1.82.25-2.36.31-.93.1-1.28.14-1.88.49-.36.21-.47.33-.95.83-.32.34-.79.83-1.6,1.62-.78.77-1.2,1.14-1.52,1.44-.34.31-.59.53-1.07,1.04-1.34,1.41-2.01,2.11-2.55,3.25-.65,1.36-.78,2.62-.84,3.23-.09.87-.03,1.32.03,1.71.06.43.12.83-.03,1.62-.11.59-.26,1-.41,1.4-.19.52-.37,1.02-.46,1.89h0c-.07.68-.11,1.08,0,1.58.22,1.07.93,1.71,1.75,2.45.26.23.52.47.78.74,1.02,1.03,1.38,1.81,1.73,2.57.23.5.46,1.01.89,1.6,1.87,2.56,5.08,3.38,7.65,4.04,1.97.51,7.17,1.44,12.84-.82,2.1-.84,4.98-1.98,6.81-4.87,1.21-1.92,1.59-4.04,1.7-4.86.07-.56.06-.82.04-1.68,0-.53-.03-1.27-.04-2.42,0-1.3,0-2,0-2.62,0-.66.02-1.23,0-2.34-.08-4.49-.38-5.17-.8-5.63-.3-.33-.49-.4-1.05-.61-.47-.17-1.17-.43-2.34-.99-.75-.36-2.49-1.2-4.36-2.5-.87-.61-1.38-1.03-1.78-1.38-.54-.46-.86-.73-1.64-1.08-.58-.26-1.8-.71-3.38-.81-.17-.01-.33-.02-.47-.02l-.03-.02Z"/><path class="cls-4" d="m38.39,53.25c-.81,0-1.67-.05-2.57-.19-2.77-.4-4.74-1.37-6.04-2.01-1.4-.69-2.25-1.1-3.04-2.03-.68-.8-.87-1.43-1.05-2.04-.17-.58-.35-1.18-.96-1.96-.65-.82-1.37-1.33-1.95-1.74-.68-.47-1.16-.82-1.08-1.36.05-.3.23-.42.45-.56.17-.11.37-.24.57-.5h0c1-1.26.38-3.44-.02-4.89-.28-1-.53-1.5-.72-1.86-.2-.41-.33-.65-.29-1.18.05-.69.37-1.32,3.03-4.08.76-.78,1.16-1.17,1.58-1.58.37-.36.76-.74,1.42-1.42.95-.97,1.5-1.58,1.86-1.98.55-.61.7-.77,1.16-1.04,1.1-.65,2.5-.78,5.05-1.02,2.61-.25,3.92-.37,5.05,0,1.03.34,1.44.77,1.97,1.31.44.45.98,1.01,2.06,1.7,1.29.83,2.26,1.14,3.12,1.42,1,.33,1.87.61,2.9,1.59,1.14,1.08,1.65,2.21,2.03,3.04.75,1.65.75,2.71.74,4.46,0,1.25,0,2.97.27,5.58l.04.41c.12,1.08.19,1.73-.05,2.64-.24.94-.78,2.08-3.04,4.06-1.74,1.53-3.38,2.97-6.04,4.02-1.02.41-3.41,1.19-6.49,1.19l.04.02Zm-15.55-12.31l.1.08c-.23.29-.45.44-.63.55-.21.14-.31.21-.34.39-.06.39.35.68.97,1.12.59.42,1.33.94,2,1.79.64.82.82,1.44,1,2.04.18.61.35,1.19,1,1.95.73.85,1.47,1.24,2.96,1.97,1.29.63,3.23,1.59,5.96,1.99,4.24.62,7.66-.49,8.94-.99,2.62-1.04,4.17-2.4,5.96-3.98,2.21-1.94,2.73-3.04,2.96-3.94.23-.87.16-1.5.04-2.55l-.04-.41c-.28-2.62-.27-4.34-.27-5.6,0-1.78,0-2.75-.72-4.36-.37-.81-.87-1.91-1.97-2.96-.99-.94-1.84-1.22-2.81-1.54-.87-.28-1.86-.61-3.17-1.45-1.1-.7-1.66-1.28-2.1-1.74-.52-.54-.9-.93-1.87-1.25-1.08-.36-2.37-.24-4.95,0-2.7.25-3.94.39-4.95.98-.43.25-.56.39-1.1.99-.37.4-.92,1.01-1.87,1.99-.67.68-1.05,1.06-1.43,1.43-.42.41-.81.79-1.57,1.57-2.7,2.79-2.92,3.34-2.97,3.92-.03.46.06.66.26,1.05.19.38.45.89.73,1.91.42,1.49,1.05,3.75-.02,5.11l-.1-.08v.02Z"/><path class="cls-4" d="m39.45,53.15c-.81,0-1.67-.05-2.57-.19-2.77-.4-4.73-1.37-6.03-2.01-1.4-.69-2.25-1.11-3.04-2.03-.68-.8-.87-1.43-1.05-2.04-.17-.58-.35-1.18-.96-1.96-.65-.82-1.37-1.33-1.95-1.74-.68-.47-1.16-.82-1.08-1.36.05-.3.23-.42.45-.56.17-.11.37-.24.57-.5h0c1-1.26.38-3.44-.02-4.89-.28-1-.53-1.5-.72-1.86-.2-.41-.33-.65-.29-1.18.05-.69.37-1.32,3.03-4.08.76-.79,1.16-1.17,1.58-1.58.37-.36.76-.74,1.42-1.42.95-.97,1.5-1.58,1.86-1.98.55-.61.7-.77,1.16-1.04,1.1-.65,2.5-.78,5.05-1.02,2.61-.24,3.92-.37,5.05,0,1.03.34,1.44.77,1.97,1.31.44.45.98,1.01,2.06,1.7,1.29.83,2.26,1.14,3.12,1.42,1,.33,1.87.61,2.9,1.59,1.14,1.08,1.65,2.21,2.03,3.04.75,1.66.75,2.71.74,4.46,0,1.25,0,2.97.27,5.58l.04.41c.12,1.07.19,1.72-.05,2.63-.25.94-.78,2.08-3.04,4.06-1.74,1.53-3.38,2.97-6.04,4.02-1.02.41-3.41,1.19-6.49,1.19l.03.03Zm.73-31.42c-.82,0-1.85.1-3.27.23-2.7.25-3.94.39-4.95.98-.43.25-.56.39-1.1,1-.37.4-.92,1.01-1.87,1.98-.67.68-1.05,1.06-1.43,1.42-.42.41-.82.79-1.57,1.58-2.7,2.79-2.92,3.34-2.97,3.92-.04.46.06.66.26,1.05.19.38.45.89.73,1.91.42,1.49,1.05,3.75-.02,5.11h0c-.23.29-.45.44-.63.55-.21.14-.31.21-.34.39-.06.39.35.68.97,1.11.6.42,1.34.94,2,1.79.64.81.82,1.44,1,2.04.18.61.35,1.19,1,1.95.73.85,1.47,1.24,2.96,1.97,1.29.63,3.24,1.59,5.96,1.99,4.24.62,7.66-.49,8.94-.99,2.61-1.04,4.17-2.4,5.96-3.97,2.21-1.94,2.73-3.04,2.97-3.94.23-.86.16-1.5.04-2.54l-.04-.41c-.28-2.62-.27-4.35-.27-5.6,0-1.78,0-2.75-.72-4.36-.37-.81-.87-1.92-1.97-2.96-.99-.94-1.84-1.22-2.81-1.54-.87-.28-1.86-.61-3.17-1.45-1.1-.7-1.66-1.28-2.1-1.74-.52-.54-.9-.93-1.87-1.25-.48-.16-1.01-.22-1.68-.22h0Z"/><path class="cls-4" d="m39.29,50.56c-.68,0-1.4-.05-2.16-.16-2.32-.35-3.97-1.18-5.06-1.73-1.17-.59-1.88-.95-2.55-1.75-.57-.69-.73-1.23-.88-1.76-.14-.5-.29-1.01-.8-1.68-.54-.7-1.14-1.14-1.63-1.49-.57-.41-.98-.71-.91-1.18.04-.26.21-.37.38-.49.14-.1.31-.21.48-.42h0c.83-1.08.32-2.95-.02-4.19-.23-.86-.44-1.29-.6-1.6-.17-.35-.28-.56-.24-1.02.04-.6.31-1.14,2.54-3.51.63-.67.96-1,1.32-1.36.31-.31.64-.64,1.19-1.22.79-.84,1.25-1.36,1.56-1.7.45-.51.59-.66.98-.9.92-.56,2.1-.67,4.23-.88,2.19-.21,3.29-.32,4.23,0,.86.29,1.21.66,1.66,1.13.36.39.82.87,1.72,1.46,1.08.71,1.89.98,2.6,1.22.84.28,1.57.53,2.44,1.37.96.93,1.39,1.91,1.7,2.62.63,1.42.63,2.33.62,3.84,0,1.08,0,2.55.22,4.79l.04.35c.1.93.16,1.49-.04,2.27-.21.81-.66,1.79-2.55,3.5-1.45,1.31-2.83,2.55-5.05,3.46-.86.35-2.86,1.03-5.44,1.03h.02Zm.61-27c-.68,0-1.55.08-2.73.2-2.26.22-3.29.33-4.13.84-.35.21-.46.34-.92.85-.31.35-.77.87-1.57,1.71-.56.59-.88.91-1.2,1.23-.35.35-.68.68-1.31,1.35-2.25,2.39-2.44,2.87-2.48,3.36-.03.39.05.56.22.89.16.32.38.77.62,1.64.35,1.29.88,3.23-.02,4.41h0c-.19.25-.38.38-.54.48-.18.12-.25.18-.28.32-.05.31.24.54.81.94.5.36,1.12.81,1.68,1.54.54.7.69,1.24.84,1.76.15.53.29,1.02.83,1.67.61.73,1.23,1.06,2.47,1.69,1.08.54,2.7,1.36,4.98,1.71,3.54.53,6.4-.42,7.46-.85,2.19-.89,3.48-2.06,4.98-3.41,1.84-1.66,2.28-2.61,2.47-3.38.19-.74.13-1.25.03-2.19l-.04-.35c-.23-2.25-.23-3.73-.23-4.82,0-1.52,0-2.36-.6-3.74-.31-.69-.72-1.64-1.65-2.54-.83-.81-1.5-1.03-2.34-1.31-.73-.24-1.55-.52-2.66-1.25-.92-.61-1.39-1.1-1.76-1.5-.44-.46-.75-.8-1.56-1.07-.4-.14-.84-.19-1.4-.19h.03Z"/><path class="cls-3" d="m37.2,51.59c-2.5,0-5.04-.32-6.93-2.08-.65-.6-2.01-2.13-3.02-4.03-.15-.29-.28-.56-.41-.82-.42-.86-.75-1.54-1.56-2.15-.11-.08-.21-.15-.31-.22-.37-.25-.68-.46-.73-.85-.04-.34.16-.58.39-.86.24-.29.51-.62.61-1.17.02-.1.02-.14.01-.4,0-.13,0-.31-.01-.58h0c-.01-.78,0-1.19,0-1.47v-.53c-.04-.82-.29-1.27-.53-1.7-.2-.36-.4-.73-.47-1.29-.07-.58,0-1.4,1.01-3.06.79-1.3,3.21-5.25,8.05-7.04,1.91-.71,3.79-.94,5.03-1.01.19-.01.36-.02.52-.04.55-.04.99-.08,1.51.04,1.44.32,2.35,1.29,2.9,1.87.05.06.11.11.15.16,1.23,1.27,2.22,1.48,3.19,1.68.87.18,1.77.36,2.81,1.32,1.88,1.74,3.53,5.24,3.03,8.09,0,.06-.02.12-.04.19-.11.59-.3,1.59.03,2.76.16.57.37.89.57,1.19.15.23.3.47.43.8.79,2.05-.56,4.33-1.01,5.09-1.29,2.18-3.2,3.13-5.04,4.04-2.48,1.23-5.18,1.9-8.04,2.01-.7.03-1.42.05-2.14.05h0Zm-11.76-13.15c0,.27,0,.45.01.58,0,.27,0,.32-.01.44-.11.6-.41.97-.65,1.26-.21.25-.37.45-.34.71.03.3.3.48.64.71.1.07.21.14.32.22.85.63,1.19,1.34,1.62,2.22.12.26.25.52.41.81.99,1.87,2.34,3.38,2.98,3.97,2.38,2.22,5.86,2.09,8.93,1.97,2.83-.1,5.51-.77,7.96-1.99,1.82-.9,3.69-1.83,4.96-3.96.43-.73,1.75-2.96.99-4.91-.12-.31-.26-.53-.41-.76-.21-.32-.42-.65-.59-1.25-.35-1.22-.15-2.25-.04-2.86,0-.07.03-.13.04-.19.48-2.75-1.16-6.25-2.97-7.91-1-.92-1.83-1.09-2.71-1.27-.99-.2-2.02-.42-3.29-1.73-.05-.05-.1-.11-.16-.16-.53-.56-1.41-1.5-2.79-1.81-.49-.11-.91-.08-1.45-.03-.16.01-.34.03-.52.04-1.23.07-3.09.3-4.97.99-4.77,1.77-7.16,5.67-7.95,6.96-.99,1.61-1.05,2.39-.99,2.94.06.52.25.86.45,1.22.25.45.51.92.55,1.79v.54c0,.27-.01.69,0,1.46h-.02Z"/><path class="cls-3" d="m39.23,49.56c-1.18,0-2.97-.11-4.96-1.04-.65-.3-2.18-1.02-3.53-2.59-.41-.47-.56-.74-.76-1.11-.21-.39-.5-.92-1.24-1.96-.25-.35-.46-.63-.64-.87-.58-.78-.85-1.13-.88-1.75-.03-.54.14-.82.37-1.21.19-.31.42-.7.63-1.38.23-.72.24-1.14.25-1.62s.02-1.02.25-1.95c.2-.82.41-1.67,1.01-2.59.28-.43.47-.6.86-.96.26-.24.61-.56,1.15-1.11h0c.74-.75,1.09-1.16,1.32-1.44.26-.31.37-.44.7-.63.54-.3.87-.31,1.46-.33.45-.01,1.07-.04,2.07-.2.72-.12,1.16-.23,1.52-.32.5-.12.83-.2,1.5-.2.53,0,1.5.03,2.55.52.48.23.7.43,1,.71.23.21.52.47,1.02.84.56.42.87.58,1.23.78.31.17.67.36,1.26.75,1.41.94,2.12,1.41,2.53,2.08.32.52.45,1.01.52,4.15.05,2.2.07,3.3,0,4.1-.2,2.18-.31,3.38-1.01,4.65-1.19,2.14-3.21,3.04-4.55,3.63-2.21.98-4.12,1.02-5.04,1.03h-.58v.02Zm.96-23c-.56,0-.85.07-1.32.19-.36.09-.81.2-1.54.32-1.02.16-1.65.18-2.1.2-.57.02-.86.03-1.35.3-.29.16-.38.26-.63.57-.23.28-.59.7-1.33,1.45h0c-.54.55-.9.88-1.16,1.12-.38.35-.55.51-.82.91-.58.89-.78,1.72-.98,2.52-.22.9-.23,1.43-.24,1.89-.01.48-.02.94-.26,1.69-.22.71-.46,1.11-.66,1.44-.22.37-.36.61-.34,1.07.03.55.26.86.83,1.62.18.24.39.52.64.87.75,1.06,1.05,1.59,1.26,1.99.2.37.34.62.73,1.07,1.32,1.53,2.81,2.23,3.45,2.52,2.3,1.07,4.34,1.03,5.43,1.01.9-.02,2.78-.05,4.94-1.01,1.31-.58,3.28-1.46,4.43-3.52.68-1.22.78-2.33.98-4.55.07-.79.05-1.88,0-4.06-.07-3.1-.19-3.57-.48-4.04-.39-.62-1.08-1.09-2.46-2.01-.58-.39-.93-.57-1.24-.74-.37-.2-.69-.37-1.26-.8-.51-.38-.8-.64-1.04-.86-.3-.27-.5-.45-.94-.66-.99-.47-1.9-.49-2.44-.5h-.11,0Z"/><path class="cls-4" d="m39.36,47.56c-1.06,0-2.68-.1-4.47-.88-.59-.26-1.96-.85-3.18-2.18-.37-.4-.5-.63-.68-.94-.19-.33-.45-.77-1.12-1.65-.22-.29-.41-.53-.57-.73-.53-.66-.77-.96-.8-1.49-.03-.47.13-.72.34-1.04.17-.26.38-.59.57-1.16.2-.6.21-.95.22-1.36,0-.4.02-.86.23-1.64.18-.69.37-1.41.92-2.19.25-.36.43-.51.77-.81.23-.2.55-.47,1.04-.93h0c.66-.63.98-.98,1.19-1.21.24-.26.34-.37.64-.53.49-.25.78-.26,1.32-.28.41-.01.96-.03,1.86-.16.65-.1,1.05-.19,1.37-.27.45-.11.73-.18,1.34-.17.47,0,1.35.02,2.29.44.43.19.63.36.9.6.21.18.46.4.91.71.51.35.78.49,1.11.65.28.14.6.3,1.13.63,1.27.79,1.91,1.19,2.28,1.76.29.44.41.86.47,3.51.04,1.85.07,2.78,0,3.46-.18,1.84-.28,2.85-.91,3.92-1.07,1.81-2.89,2.56-4.1,3.06-1.99.82-3.71.86-4.53.87h-.54Zm-6.57-16.81c-.49.46-.81.74-1.05.94-.34.29-.5.43-.73.76-.52.75-.7,1.44-.88,2.11-.2.76-.21,1.2-.22,1.59,0,.41-.02.79-.23,1.43-.2.6-.42.94-.59,1.21-.2.31-.32.5-.3.89.03.45.22.69.74,1.35.16.2.35.44.58.73.68.89.94,1.34,1.14,1.67.18.31.3.52.65.9,1.19,1.29,2.53,1.87,3.1,2.12,2.06.9,3.9.87,4.88.85.81,0,2.5-.04,4.44-.85,1.17-.49,2.95-1.22,3.98-2.96.61-1.02.7-1.96.88-3.82.07-.67.04-1.59,0-3.43-.06-2.57-.17-2.99-.43-3.38-.34-.52-.96-.91-2.2-1.68-.52-.33-.84-.48-1.12-.62-.33-.17-.62-.31-1.14-.67-.46-.32-.72-.54-.93-.72-.27-.23-.45-.38-.84-.56-.89-.4-1.71-.41-2.19-.42-.57,0-.84.05-1.28.16-.32.08-.73.17-1.39.27-.92.14-1.48.15-1.89.17-.52.02-.77.02-1.21.25-.26.14-.33.21-.57.48-.21.23-.53.59-1.2,1.22h0Z"/><path class="cls-3" d="m39.69,46.56c-.92,0-2.32-.09-3.88-.79-.51-.23-1.7-.77-2.76-1.96-.32-.36-.44-.57-.59-.85-.16-.29-.39-.69-.97-1.48-.19-.26-.36-.48-.5-.66-.46-.59-.67-.86-.69-1.35-.02-.42.12-.65.29-.94.14-.24.32-.53.49-1.04.18-.54.18-.85.19-1.22,0-.36.02-.77.2-1.48.16-.62.32-1.27.79-1.97.22-.33.37-.46.67-.73.2-.18.48-.43.9-.84.57-.56.85-.88,1.03-1.09.21-.24.29-.34.56-.48.42-.23.7-.24,1.15-.25.35-.01.83-.03,1.61-.15.56-.09.91-.17,1.18-.24.39-.09.65-.16,1.17-.15.41,0,1.18.02,1.99.4.38.17.55.33.79.54.18.16.4.36.79.63.44.31.68.44.96.59.24.13.52.27.98.57,1.1.71,1.65,1.07,1.98,1.58.25.4.35.77.41,3.16.04,1.67.06,2.5,0,3.11-.16,1.66-.24,2.57-.79,3.53-.93,1.63-2.51,2.31-3.56,2.76-1.72.74-3.22.77-3.93.78h-.45v.02Zm-5.68-15.13h0c-.42.42-.7.66-.91.85-.29.26-.43.38-.63.68-.45.67-.61,1.29-.76,1.89-.17.68-.18,1.08-.19,1.43,0,.37-.02.71-.2,1.29-.17.54-.36.85-.51,1.09-.17.28-.28.45-.26.79.02.4.19.62.64,1.21.14.18.31.4.5.66.59.8.82,1.21.98,1.51.16.28.26.46.56.81,1.02,1.15,2.18,1.68,2.68,1.9,1.78.81,3.37.78,4.22.76.7,0,2.16-.04,3.84-.76,1.02-.44,2.55-1.1,3.44-2.66.52-.92.6-1.76.76-3.43.06-.6.04-1.42,0-3.07-.05-2.33-.15-2.7-.37-3.05-.3-.47-.83-.82-1.91-1.51-.45-.29-.72-.43-.96-.56-.29-.15-.54-.28-.99-.6-.4-.29-.62-.49-.81-.65-.24-.21-.38-.34-.73-.5-.77-.36-1.47-.37-1.89-.38-.5-.01-.72.05-1.11.14-.28.07-.63.15-1.2.24-.8.12-1.28.14-1.64.15-.44.01-.67.02-1.04.22-.22.12-.28.19-.49.42-.18.21-.46.53-1.04,1.1l.02.03Z"/><path class="cls-4" d="m39.85,44.56c-.69,0-1.75-.07-2.92-.61-.38-.18-1.28-.59-2.08-1.51-.24-.28-.33-.44-.45-.66s-.29-.53-.72-1.13c-.14-.2-.27-.36-.37-.5-.35-.46-.51-.67-.53-1.05-.02-.33.09-.51.22-.73.11-.18.24-.4.36-.79.13-.41.14-.65.14-.93s0-.6.15-1.14c.11-.46.24-.98.6-1.52.17-.25.28-.36.51-.56.15-.14.36-.33.67-.64h0c.43-.43.63-.67.77-.83.16-.19.22-.26.43-.38.33-.18.53-.19.88-.2.26,0,.62-.02,1.2-.11.42-.07.68-.13.88-.18.29-.07.49-.13.89-.12.31,0,.89.02,1.51.31.28.13.42.25.6.42.13.12.3.27.59.48.33.24.51.34.71.45.18.1.39.21.74.44.83.55,1.25.83,1.5,1.22.19.31.27.6.31,2.44.03,1.28.04,1.92,0,2.39-.12,1.27-.18,1.97-.6,2.72-.7,1.26-1.9,1.78-2.68,2.13-1.3.57-2.42.59-2.96.6h-.35Zm.56-13.35c-.32,0-.49.04-.76.11-.21.05-.47.12-.9.19-.6.09-.97.11-1.24.12-.34,0-.49.02-.76.17-.16.09-.21.14-.36.32-.14.16-.35.41-.78.85h0c-.32.32-.53.51-.68.65-.23.21-.32.29-.47.52-.34.51-.45.98-.57,1.44-.13.52-.13.81-.14,1.09,0,.28,0,.55-.15,1-.13.42-.27.65-.39.85-.13.21-.2.34-.19.59.02.3.14.47.48.91.11.14.23.3.38.51.44.62.61.93.74,1.16.12.21.19.35.42.61.76.88,1.63,1.28,2,1.45,1.33.62,2.52.6,3.15.58.52,0,1.61-.03,2.87-.58.76-.33,1.9-.84,2.57-2.02.39-.7.45-1.34.57-2.62.04-.46.03-1.09,0-2.36-.04-1.77-.11-2.05-.27-2.31-.22-.35-.62-.62-1.42-1.14-.34-.23-.54-.33-.72-.43-.22-.12-.4-.22-.75-.47-.3-.22-.47-.38-.61-.5-.18-.16-.28-.26-.54-.38-.57-.27-1.09-.28-1.41-.28h-.07v-.03Z"/><path class="cls-3" d="m39.89,44.01c-1.23,0-2.2-.36-2.57-.53-.81-.36-2.73-1.37-3.03-3.04-.05-.28-.03-.45,0-.67.03-.26.06-.62,0-1.33-.02-.29-.05-.53-.08-.74-.07-.55-.11-.88.08-1.28.13-.27.27-.37.45-.5.15-.11.33-.23.56-.51h0c.36-.44.46-.77.56-1.1.09-.3.17-.58.44-.9.52-.63,1.22-.81,2.03-1.02,1.4-.36,2.58-.12,3.03,0,.56.15,1.96.65,3.03,2.02.65.83.89,1.63,1.01,2.02.21.68.69,2.28,0,4.03-.52,1.32-1.57,2.37-3.03,3.03-.87.39-1.72.53-2.47.53h0Zm-4.55-8.57l.04.03c-.24.29-.43.42-.58.53-.17.12-.3.21-.42.46-.18.37-.14.68-.07,1.23.03.21.06.45.08.75.06.72.02,1.09,0,1.35-.02.22-.04.38,0,.64.29,1.62,2.17,2.61,2.97,2.96.59.26,2.69,1.02,4.96,0,1.43-.65,2.46-1.67,2.97-2.97.68-1.72.2-3.29,0-3.97-.11-.38-.35-1.16-.99-1.98-1.04-1.34-2.43-1.83-2.97-1.98-.43-.12-1.6-.36-2.97,0-.79.21-1.48.38-1.97.98-.25.31-.34.58-.42.87-.1.34-.2.68-.58,1.13l-.04-.03h0Z"/><path class="cls-4" d="m40.16,43.49c-1.1,0-1.97-.32-2.3-.46-.73-.31-2.44-1.19-2.71-2.66-.04-.24-.03-.39,0-.59.03-.24.06-.54,0-1.16-.02-.26-.05-.46-.07-.65-.06-.48-.1-.77.08-1.12.12-.24.24-.33.4-.44.14-.1.29-.2.5-.44h0c.32-.38.41-.67.5-.96.08-.26.16-.51.39-.79.46-.55,1.09-.71,1.81-.89,1.25-.32,2.31-.11,2.7,0,.5.13,1.75.57,2.7,1.76.58.73.8,1.43.9,1.76.19.6.62,2,0,3.52-.47,1.16-1.4,2.07-2.7,2.65-.78.34-1.53.46-2.2.46h0Zm-.05-10.22c-.4,0-.85.04-1.33.16-.71.18-1.32.33-1.76.86-.23.27-.3.5-.38.75-.09.29-.18.6-.52.99h0c-.21.25-.38.37-.52.46-.15.11-.26.18-.37.4-.16.33-.13.59-.07,1.07.02.19.05.4.07.65.05.63.02.95,0,1.18-.02.19-.04.33,0,.56.26,1.41,1.94,2.28,2.65,2.58.53.23,2.4.89,4.42,0,1.27-.56,2.19-1.46,2.65-2.59.61-1.5.18-2.87,0-3.46-.1-.33-.32-1.02-.88-1.73-.93-1.17-2.16-1.6-2.65-1.73-.24-.06-.71-.16-1.32-.16h.01Z"/><path class="cls-4" d="m40.2,42.49c-.88,0-1.57-.27-1.84-.4-.58-.27-1.96-1.03-2.17-2.29-.04-.21-.02-.34,0-.51.02-.21.05-.46,0-1-.02-.22-.04-.4-.06-.56-.05-.41-.08-.66.06-.97.1-.21.2-.28.32-.38.11-.08.23-.17.4-.38h0c.26-.32.33-.58.4-.82.06-.22.12-.44.32-.68.37-.47.87-.61,1.45-.77,1.01-.27,1.85-.09,2.17,0,.4.11,1.4.49,2.16,1.52.46.63.64,1.23.72,1.52.15.51.5,1.71,0,3.03-.38,1-1.12,1.78-2.16,2.28-.62.3-1.23.4-1.76.4h-.01Zm-.04-8.78c-.31,0-.67.04-1.06.14-.56.15-1.05.29-1.4.73-.18.23-.24.43-.3.65-.07.25-.15.51-.41.85h0c-.17.22-.3.32-.41.4-.12.09-.21.16-.29.34-.13.28-.1.5-.05.91.02.16.04.34.06.56.04.54,0,.82,0,1.02-.02.17-.03.29,0,.48.2,1.21,1.54,1.95,2.11,2.21.42.19,1.91.77,3.52,0,1.02-.48,1.75-1.25,2.11-2.22.49-1.29.14-2.47,0-2.97-.08-.28-.25-.87-.7-1.48-.74-1-1.72-1.37-2.11-1.48-.19-.05-.56-.14-1.05-.14h-.02Z"/><path class="cls-4" d="m40.31,41.49c-.65,0-1.16-.22-1.36-.32-.43-.21-1.44-.82-1.59-1.83-.03-.17-.02-.27,0-.41.02-.16.03-.37,0-.79,0-.18-.03-.32-.04-.45-.04-.33-.06-.53.05-.77.07-.17.15-.23.24-.31.08-.06.17-.14.29-.3h0c.19-.26.24-.46.29-.65.05-.18.09-.35.23-.54.27-.38.64-.49,1.07-.62.74-.22,1.36-.07,1.6,0,.29.09,1.03.39,1.59,1.21.34.5.47.98.53,1.21.11.41.36,1.37,0,2.42-.28.8-.83,1.43-1.59,1.82-.46.24-.91.32-1.3.32h0Zm-2.34-5.12c-.13.17-.23.25-.31.32-.09.07-.15.12-.21.27-.09.22-.07.4-.04.72,0,.13.03.27.04.45.03.43,0,.65,0,.81,0,.13-.02.23,0,.38.15.96,1.13,1.55,1.54,1.76.31.15,1.39.61,2.56,0,.74-.38,1.27-.99,1.54-1.77.35-1.02.11-1.96,0-2.36-.06-.23-.18-.7-.52-1.18-.54-.8-1.26-1.09-1.54-1.18-.22-.07-.82-.21-1.54,0-.41.12-.76.23-1.02.58-.13.18-.17.34-.22.51-.05.19-.11.41-.31.68h.03Z"/><path class="cls-4" d="m40.32,40.49c-.44,0-.78-.16-.91-.23-.29-.16-.97-.59-1.07-1.32-.02-.12,0-.2,0-.29,0-.12.02-.26,0-.56,0-.13-.02-.23-.03-.32-.02-.24-.04-.38.03-.56.05-.12.1-.17.16-.23.05-.05.11-.1.19-.21.12-.18.16-.32.19-.46.03-.13.06-.25.16-.39.19-.28.45-.36.72-.45.5-.16.92-.05,1.08,0,.2.07.69.28,1.07.87.23.36.31.7.35.87.07.29.24.98,0,1.74-.18.57-.55,1.02-1.07,1.31-.31.17-.61.23-.88.23h.01Zm-.02-5c-.15,0-.32.02-.51.08-.27.09-.5.16-.67.41-.09.13-.11.24-.14.36-.03.14-.07.3-.2.49h0c-.09.13-.15.18-.21.23-.06.05-.1.08-.14.19-.06.15-.05.28-.02.51,0,.09.02.19.03.32.02.31,0,.47,0,.58,0,.09,0,.16,0,.27.1.68.74,1.1,1.02,1.24.2.11.92.43,1.69,0,.49-.27.84-.71,1.02-1.25.23-.73.07-1.39,0-1.68-.04-.16-.12-.49-.34-.84-.36-.57-.83-.77-1.02-.83-.07-.02-.26-.08-.51-.08Z"/><path class="cls-3" d="m40.33,39.49c-.23,0-.4-.1-.47-.14-.15-.09-.49-.36-.54-.8v-.18c0-.07,0-.16,0-.34,0-.08,0-.14,0-.19,0-.14-.02-.23.02-.34.03-.08.06-.11.09-.14.02-.03.05-.06.09-.12h0c.06-.11.08-.19.09-.27.02-.08.03-.15.08-.24.1-.17.23-.22.37-.28.25-.09.46-.04.56,0,.13.05.36.19.55.54.11.22.16.43.18.53.04.18.12.59,0,1.05-.09.35-.28.62-.54.8-.16.11-.31.14-.45.14l-.02-.02Zm0-3c-.07,0-.16,0-.24.05-.14.05-.24.09-.32.23-.04.07-.05.14-.07.21-.02.08-.04.18-.1.3h0c-.04.08-.08.11-.11.14s-.05.05-.06.1c-.03.09-.02.16,0,.3,0,.05,0,.12,0,.19,0,.19,0,.28,0,.35v.16c.05.4.37.65.5.73.1.06.44.25.81,0,.24-.16.41-.42.5-.74.12-.43.03-.83,0-1-.02-.1-.06-.3-.17-.5-.18-.33-.41-.45-.5-.49-.05-.02-.14-.04-.24-.04h0Z"/><path class="cls-2" d="m63.28,36.03c1.28-2.45.48-5.16.06-6.59-.57-1.93-1.46-3.23-2.16-3.87-.53-.48-1.06-.8-1.06-.8-.49-.3-.94-.47-1.39-.64-.57-.22-1.08-.49-1.23-.56-1.1-.53-1.74-1.51-2.16-2.13,0,0-1.08-1.58-3-4-3.94-4.96-10.94-5.02-11.52-5-.45.02-.86.09-.86.09-.45.08-.86.21-1.49.4-.44.14-1,.31-1.77.53-2.69.76-4.14.97-5.31,1.14-.63.09-1.2.17-1.87.32-.81.19-1.4.39-1.85.55-3.31,1.17-4.96,1.75-5.33,1.97-1.18.7-3.12,1.84-4,4-.42,1.03-.98,3.21-1.86,4.15-.45.48-.88.85-.88.85-.35.31-.64.53-.9.72-.6.45-1.03.77-1.33,1.61-.16.45-.22.87-.21,1.27v.04c.06.33.13.8.18,1.36.05.55.17,1.9,0,3-.25,1.61-1.01,1.86-2,4-.51,1.1-.81,2.13-1,3-.13.6-.69,3.29.3,4.35.15.16.75.73,1.37,1.23.7.57,1.2.91,1.36,1.03,1.28.94,1.62,2.9,1.97,4.39.34,1.48.95,4.12,2,6,1.55,2.78,4.16,4.08,6,5,2.54,1.27,4.57,1.54,8,2,3.39.45,6.75.88,11,0,2.43-.5,4.14-1.22,6-2,3.66-1.54,6.24-2.62,8.85-5.14,3-2.9,4.44-6.16,5.12-8.2.85-2.57,1.37-4.13,1.03-6.2-.42-2.56-1.9-4.34-1-6.46.31-.72.49-.55.94-1.41Zm-1.91,13.75c-1.4,4.13-3.88,6.83-4.88,7.8-3.21,3.11-6.71,4.22-8.8,4.88-4.55,1.44-8.19,1.24-12.41,1l-.41-.02c-5.11-.28-8.07-1.26-9.84-1.96-2.42-.97-4.51-1.8-5.77-3.81-.33-.53-.45-.89-.67-1.55-.23-.7-.54-1.65-1.29-3.38-.93-2.14-1.39-3.21-2.06-4.1-1.01-1.34-1.97-1.98-2.68-2.45-.75-.5-1.09-.75-1.23-1.36-.08-.35.01-.86,1.96-4.66.77-1.52,1.23-2.37,1.51-2.88.39-.72.46-.85.53-1.26.32-1.73-.19-2.97-.63-4.07-.42-1.02-.75-1.83-.39-2.85.2-.56.43-.73.99-1.15.45-.34,1.07-.8,1.9-1.67,1.43-1.49,1.96-2.56,2.47-3.59.4-.79.77-1.54,1.55-2.43,1.85-2.13,4.14-2.93,6.79-3.86,1.51-.53,2.4-.66,3.52-.82,1.2-.17,2.69-.39,5.45-1.17.78-.22,1.34-.4,1.79-.53.95-.3,1.31-.41,2.09-.45.15-.01.3-.01.45-.01,2.72,0,4.85,1.16,6.29,1.95,1.28.7,3.16,1.94,4.86,3.89.8.91,1.15,1.51,1.47,2.04.36.61.7,1.19,1.57,2,1.18,1.09,2.08,1.44,2.87,1.75.71.28,1.33.52,2.13,1.25,1.55,1.4,3.02,3.98,2.84,6.6-.08,1.2-.49,1.89-.92,2.61-.48.82-1.03,1.74-1.08,3.4-.04,1.2.2,1.89.46,2.62.22.63.45,1.29.54,2.44.19,2.35-.43,4.18-.97,5.8Z"/><path class="cls-3" d="m37.13,63.44c-2.34,0-5.89-.23-9.82-2.15-1.29-.63-4.31-2.09-6.99-5.33-.81-.98-1.09-1.53-1.49-2.29-.42-.81-1-1.91-2.48-4.08-.49-.72-.9-1.29-1.27-1.8-1.18-1.64-1.67-2.32-1.73-3.57-.06-1.09.27-1.66.72-2.45.37-.66.84-1.47,1.27-2.9.46-1.51.48-2.39.5-3.4.02-.98.04-2.1.49-4.01.4-1.69.81-3.44,2-5.34.55-.87.93-1.23,1.69-1.96.52-.49,1.23-1.17,2.3-2.3l.09.09-.09-.09c1.47-1.55,2.17-2.42,2.63-2.99.53-.65.73-.9,1.36-1.27,1.04-.61,1.68-.63,2.85-.67.9-.03,2.13-.07,4.14-.41,1.44-.24,2.33-.47,3.04-.66.98-.26,1.64-.43,2.94-.4,1.04.02,2.97.05,5.01,1.07.93.46,1.34.85,1.96,1.44.46.44,1.03.98,2.03,1.75,1.13.87,1.75,1.22,2.47,1.62.62.35,1.33.75,2.49,1.55,2.79,1.94,4.19,2.91,5,4.28.62,1.05.87,2.06,1.01,8.55.1,4.55.15,6.83,0,8.5-.41,4.65-.61,6.98-2,9.6-2.34,4.41-6.34,6.26-8.99,7.48-4.37,2.02-8.15,2.09-9.97,2.13-.34,0-.72.01-1.15.01h0Zm1.91-47.74c-1.13,0-1.75.16-2.65.4-.71.19-1.6.42-3.06.66-2.02.34-3.26.38-4.17.41-1.16.04-1.75.06-2.74.64-.6.35-.77.56-1.29,1.21-.47.58-1.17,1.45-2.65,3.01-1.08,1.14-1.79,1.82-2.31,2.31-.77.73-1.12,1.07-1.65,1.91-1.17,1.86-1.58,3.59-1.97,5.26-.44,1.89-.47,2.98-.49,3.95-.02,1.03-.04,1.93-.51,3.48-.44,1.46-.91,2.29-1.3,2.96-.44.78-.74,1.29-.68,2.3.06,1.17.54,1.83,1.68,3.43.37.51.78,1.09,1.27,1.81,1.5,2.19,2.08,3.3,2.5,4.11.41.78.67,1.29,1.46,2.24,2.65,3.2,5.63,4.65,6.91,5.27,4.6,2.23,8.67,2.15,10.86,2.11,1.8-.04,5.55-.11,9.88-2.11,2.62-1.21,6.57-3.04,8.87-7.37,1.36-2.56,1.57-4.88,1.97-9.49.14-1.65.1-3.93,0-8.47-.14-6.42-.38-7.41-.97-8.42-.78-1.32-2.17-2.28-4.93-4.2-1.15-.8-1.85-1.2-2.47-1.54-.73-.41-1.36-.76-2.5-1.64-1.01-.78-1.58-1.33-2.05-1.77-.6-.57-1-.95-1.9-1.4-2-1-3.82-1.03-4.91-1.05h-.22.02Z"/><path class="cls-5" d="m7.46,30.46c-.02.12-.05.22-.08.34-.17.68-.42,1.01-1.1,1.32-.56.26-1.24.49-1.8.71-.35.13-.43.25-.51.73l-.06.33,1.55.27c.84.15.91.05,1.11-.69l.28.05-.44,2.51-.28-.05c.05-.8.02-.87-.82-1.01l-3.93-.68c-.84-.15-.89-.05-1.1.68l-.28-.05.42-2.4c.12-.69.29-1.13.6-1.45.32-.34.81-.52,1.41-.42.85.15,1.29.76,1.48,1.51.33-.12,1.07-.41,1.56-.61.58-.26.86-.39,1.14-.57.33-.2.48-.4.57-.61l.27.09h.01Zm-3.81,2.92c.08-.49.06-.81-.11-1.08-.22-.42-.59-.64-1.12-.73-1.05-.18-1.56.42-1.68,1.14-.05.27-.04.44,0,.52.05.1.15.14.4.19l2.42.42.08-.45h0Z"/><path class="cls-5" d="m8.79,26.74l-.26-.1c.15-.61.08-.72-.32-.73-.41-.02-.94-.02-1.6-.06l-.73,1.93c.37.3.68.57,1.02.84.53.43.66.33,1.03-.37l.26.1-.78,2.07-.26-.1c.14-.59.13-.76-.6-1.39l-4.21-3.71.05-.31c1.81.04,3.81.09,5.65.14.92.02,1.03-.03,1.34-.64l.26.1-.84,2.21v.02Zm-5.32-.99c.7.59,1.43,1.22,2.07,1.76l.63-1.67s-2.7-.09-2.7-.09Z"/><path class="cls-5" d="m8.67,14.29c-.27.62-.26.74.3,1.4.68.8,2.42,2.8,3.66,4.2l-.17.27c-1.59-.41-3.56-.9-5.08-1.26,1.16,1.38,2.31,2.77,3.35,4.01l-.17.27c-1.71-.51-3.59-1.05-5.34-1.54-.82-.22-.97-.19-1.36.3l-.24-.15,1.26-2,.24.15c-.31.64-.23.72.27.87,1.34.4,2.67.79,4.08,1.21-1.07-1.29-2.23-2.7-3.36-3.99l.16-.26c1.73.45,3.35.84,5.08,1.28-.91-1.05-2.13-2.46-2.75-3.1-.41-.43-.57-.44-1.08.2l-.24-.15,1.17-1.85.24.15h-.02Z"/><path class="cls-5" d="m16.69,6.93c-.42.45-.51.65-.24,1.02.2.25.45.58,1.05,1.3l2.58,3.07-.28.23-6.5-1.36,1.61,1.91c.58.69.89,1.01,1.09,1.22.34.38.62.34,1.19-.06l.18.21-1.78,1.5-.18-.21c.42-.42.5-.68.21-1.08-.18-.26-.46-.62-1.05-1.32l-1.64-1.95c-.18-.21-.3-.32-.57-.38-.3-.07-.49,0-.88.27l-.18-.21,1.1-.92,6.34,1.23-1.58-1.87c-.6-.71-.89-1.03-1.11-1.24-.31-.33-.57-.29-1.19.16l-.18-.21,1.81-1.52.18.21h.02Z"/><path class="cls-5" d="m20.98,4.01c1.45-.75,3.35-.26,4.27,1.51.99,1.91.37,3.74-1.19,4.55s-3.49.16-4.36-1.51c-.83-1.59-.51-3.62,1.28-4.55Zm0,.42c-.95.49-1.38,1.78-.52,3.44.86,1.65,2.35,2.42,3.56,1.8,1.03-.53,1.38-1.73.49-3.45-.97-1.87-2.42-2.36-3.53-1.79Z"/><path class="cls-5" d="m33.03,6.81c-.12.03-.22.05-.35.08-.69.14-1.09.06-1.67-.43-.48-.4-.98-.91-1.41-1.32-.27-.26-.41-.28-.87-.15l-.32.09.42,1.51c.23.82.34.84,1.1.71l.08.27-2.46.68-.08-.27c.74-.3.79-.36.56-1.17l-1.07-3.84c-.23-.82-.34-.82-1.09-.7l-.08-.27,2.35-.65c.67-.19,1.15-.23,1.56-.08.45.15.82.51.98,1.1.23.83-.13,1.49-.73,1.99.25.25.82.79,1.22,1.14.48.42.72.61,1,.79.33.21.57.26.8.26l.04.28.02-.02Zm-4.27-2.18c.48-.13.76-.29.93-.56.28-.38.32-.81.18-1.33-.29-1.03-1.05-1.22-1.75-1.03-.27.08-.41.16-.46.23-.06.09-.06.19,0,.45l.66,2.36s.44-.12.44-.12Z"/><path class="cls-5" d="m35.47.04c1.34-.08,2.21.14,2.84.69.5.45.88,1.13.94,2.08.07,1.17-.33,2.14-1.02,2.77-.69.61-1.6.89-2.77.96l-2.23.14-.02-.28c.81-.13.85-.2.8-1.02l-.25-3.98c-.05-.86-.17-.89-.92-.92l-.02-.28,2.65-.17h0Zm-.64,5.22c.05.75.37.94,1.08.89,1.72-.11,2.52-1.39,2.41-3.14-.07-1.09-.47-1.89-1.26-2.33-.46-.26-1.02-.34-1.66-.3-.43.03-.65.1-.74.19-.08.06-.11.18-.09.57l.26,4.11h0Z"/><path class="cls-5" d="m40.29,6.47l.03-.28c.79,0,.87-.04.96-.89l.41-3.95c.09-.86.02-.9-.75-1.07l.03-.28,2.55.26-.03.28c-.8,0-.88.04-.97.9l-.41,3.95c-.09.86-.02.89.76,1.06l-.03.28s-2.55-.26-2.55-.26Z"/><path class="cls-5" d="m49.63,6.71c-.25.43-.68,1.06-.9,1.32-.28-.01-1.05-.03-1.75-.22-2.21-.59-2.92-2.43-2.47-4.12.53-1.97,2.33-2.95,4.39-2.39.79.21,1.39.56,1.69.69-.08.44-.17,1.04-.23,1.54h-.3c0-.71-.13-1.16-.54-1.49-.21-.18-.57-.35-.92-.44-1.52-.41-2.64.55-3.07,2.14-.5,1.86.1,3.31,1.6,3.71.94.25,1.52-.08,2.25-.92l.25.17h0Z"/><path class="cls-5" d="m57.6,5.23c1.15.7,1.73,1.38,1.93,2.19.15.65.08,1.43-.42,2.25-.61,1-1.5,1.57-2.43,1.68-.92.11-1.82-.19-2.82-.8l-1.91-1.16.15-.24c.74.36.81.32,1.24-.38l2.08-3.4c.45-.73.37-.83-.22-1.28l.15-.24,2.27,1.38h-.02Zm-3.52,3.91c-.39.64-.24.98.37,1.35,1.47.9,2.86.3,3.77-1.19.57-.93.7-1.82.31-2.62-.22-.48-.64-.86-1.18-1.19-.37-.22-.59-.29-.72-.27-.1,0-.19.08-.4.41,0,0-2.15,3.51-2.15,3.51Z"/><path class="cls-5" d="m62.6,15.37c-.22.15-1.11.74-1.38.89l-3.42-3.14.19-.21c.7.55.81.53,1.37-.07l2.68-2.91c.6-.65.56-.76.08-1.3l.19-.21,2.15,1.98c.66.61.94.85,1.03.92-.16.19-.64.77-.97,1.18l-.24-.16c.17-.31.24-.53.3-.75.11-.35,0-.55-.43-.93l-.67-.61c-.22-.2-.25-.19-.45.02l-1.5,1.62.78.72c.53.49.66.41,1.21-.02l.22.2-1.4,1.52-.22-.2c.4-.61.41-.74-.1-1.21l-.77-.71-1.35,1.46c-.47.51-.36.7-.02,1.03l.65.6c.43.39.56.39.89.34.28-.03.7-.2,1-.33l.16.25.02.03Z"/><path class="cls-5" d="m67.84,16.5c.42-.54.76-1.15.2-1.86-.46-.58-1.07-.43-1.48-.11-.54.43-.55.98-.4,1.87.23,1.28.18,1.96-.57,2.55-.82.65-1.99.47-2.76-.49-.36-.45-.53-.94-.65-1.35.17-.23.63-.75,1.01-1.14l.25.18c-.41.57-.82,1.44-.21,2.21.43.54,1.08.56,1.59.15.6-.48.6-.98.45-1.94-.18-1.14-.15-1.88.57-2.46.7-.55,1.79-.52,2.58.46.33.42.54.92.64,1.1-.26.25-.55.53-1.01,1l-.23-.19.02.02Z"/><path class="cls-5" d="m64.71,20.69l.24-.15c.49.62.56.66,1.29.22l3.38-2.08c.73-.45.73-.54.39-1.25l.24-.15,1.34,2.18-.24.15c-.49-.63-.57-.67-1.3-.22l-3.38,2.08c-.73.45-.72.53-.38,1.25l-.24.15-1.34-2.18Z"/><path class="cls-5" d="m71.46,28.22c-.3-.52-.37-.53-.92-.3l-.77.32c-.32.13-.62.27-.85.42-.36-.49-.86-1.12-1.17-1.86-.84-2-.05-3.76,1.8-4.54,1.94-.82,3.74.22,4.48,1.98.38.9.47,1.64.54,1.93-.33.16-.88.44-1.43.75l-.17-.24c.69-.54.92-.93.88-1.57-.01-.23-.12-.61-.22-.87-.56-1.35-1.9-1.82-3.58-1.11-1.47.61-2.62,1.95-1.9,3.66.13.3.3.55.47.68.19.14.34.21.72.05l.76-.32c.67-.28.72-.38.43-1.26l.27-.11.95,2.27-.27.11h-.02Z"/><path class="cls-5" d="m76.49,35.18c-.18-.59-.32-.77-.78-.71-.32.05-.73.11-1.65.29l-3.94.75-.07-.36,4.37-5-2.46.47c-.88.17-1.32.28-1.6.35-.5.11-.6.38-.53,1.06l-.27.05-.44-2.28.27-.05c.16.57.35.77.84.71.32-.03.77-.1,1.66-.27l2.51-.48c.27-.05.43-.1.61-.31.21-.23.23-.43.19-.9l.27-.05.27,1.41-4.18,4.92,2.41-.46c.91-.17,1.33-.27,1.62-.36.44-.11.53-.35.44-1.11l.27-.05.44,2.32-.27.05h.02Z"/><path class="cls-5" d="m17.27,70.52l.06-.09c.29.17.31.15.56-.2l.94-1.33c-.69.41-1.79,1.03-2.11,1.24l-.09-.06c.1-.38.36-1.54.52-2.31-.86,1.1-1.05,1.36-1.09,1.42-.13.18-.06.27.15.45l-.06.09-.78-.55.06-.09c.21.12.31.13.46-.03.12-.13.21-.24,1.13-1.38.13-.16.14-.24-.13-.47l.06-.09.58.41-.44,2.17,1.95-1.1.58.41-.06.09c-.31-.17-.36-.16-.52.07l-.87,1.26c-.23.36-.23.38.04.62l-.06.09s-.88-.62-.88-.62Z"/><path class="cls-5" d="m20.27,72.32l.05-.1c.25.1.29.08.32-.08.03-.16.05-.38.1-.64l-.77-.42c-.14.13-.27.23-.4.35-.2.19-.17.24.1.44l-.05.1-.82-.45.05-.1c.24.09.31.1.61-.15l1.75-1.44.13.04c-.1.72-.22,1.52-.33,2.25-.05.37-.04.41.2.58l-.05.1-.88-.48h-.01Zm.67-2.07c-.28.24-.57.49-.83.71l.67.37.17-1.08h-.01Z"/><path class="cls-5" d="m23.79,71.15c.52.23.81.47.95.79.11.25.13.57-.02.92-.18.43-.51.7-.89.79-.37.09-.77.01-1.23-.18l-.87-.37.04-.1c.33.11.36.09.49-.21l.63-1.47c.14-.32.1-.35-.18-.5l.04-.1,1.04.45v-.02Zm-1.19,1.74c-.12.28-.03.4.25.52.67.29,1.21-.02,1.48-.66.17-.4.16-.76-.05-1.07-.13-.18-.32-.31-.57-.42-.17-.07-.27-.09-.32-.08-.04,0-.07.04-.14.19l-.65,1.51h0Z"/><path class="cls-5" d="m27.21,74.47c-.06.09-.29.45-.36.55l-1.88-.6.03-.11c.37.09.41.06.51-.25l.48-1.51c.11-.34.07-.37-.21-.49l.03-.11,1.18.38c.36.12.51.16.56.17-.03.1-.1.39-.15.59l-.12-.02c0-.14,0-.23-.02-.33-.02-.15-.1-.2-.33-.28l-.37-.12c-.12-.04-.13-.03-.17.08l-.27.84.43.14c.29.09.33.04.46-.2l.12.04-.25.79-.12-.04c.04-.29.02-.34-.26-.43l-.42-.14-.24.76c-.09.27,0,.32.18.38l.36.12c.24.08.29.05.4-.02.1-.06.23-.19.32-.28l.11.07v.02Z"/><path class="cls-5" d="m32.95,73.78c-.29,0-.33.01-.5.32-.2.37-.7,1.31-1.04,1.98l-.14-.02c-.1-.65-.23-1.46-.33-2.08-.35.64-.71,1.27-1.02,1.84l-.13-.02c-.08-.71-.17-1.49-.27-2.21-.05-.34-.08-.39-.34-.46l.02-.11.98.17-.02.11c-.3-.02-.32.02-.3.23.06.56.13,1.11.19,1.69.33-.59.69-1.23,1.01-1.84l.13.02c.1.71.22,1.37.33,2.08.26-.49.61-1.16.76-1.48.1-.22.08-.27-.25-.37l.02-.11.91.16-.02.11h.01Z"/><path class="cls-5" d="m33.19,76.26v-.11c.34,0,.38-.02.41-.36l.14-1.58c.03-.34,0-.36-.33-.43v-.11l1.09.09v.11c-.35,0-.38.02-.41.36l-.14,1.58c-.03.34,0,.36.33.42v.11l-1.09-.09h0Z"/><path class="cls-5" d="m37.18,74.48c-.03-.13-.08-.26-.12-.33-.06-.11-.1-.14-.33-.14h-.4l-.04,1.94c0,.31.03.36.41.39v.11l-1.18-.02v-.11c.38-.02.41-.06.42-.37l.04-1.95h-.37c-.22-.01-.29.01-.36.13-.05.08-.08.17-.14.32h-.12c.03-.25.06-.5.07-.72h.09c.06.1.1.1.22.1l1.6.03c.11,0,.15-.01.21-.09h.1c0,.19,0,.48.02.71,0,0-.12,0-.12,0Z"/><path class="cls-5" d="m40.75,73.75c-.33.06-.36.08-.34.41l.12,1.6c.02.33.06.34.4.35v.11l-1.08.08v-.11c.32-.06.36-.08.33-.41l-.06-.8-1.38.1.06.8c.02.33.06.34.39.36v.11l-1.07.08v-.11c.32-.06.35-.08.33-.41l-.12-1.6c-.02-.33-.06-.35-.39-.36v-.11l1.07-.08v.11c-.31.05-.35.08-.33.41l.05.63,1.38-.1-.05-.63c-.02-.33-.07-.36-.4-.36v-.11l1.08-.08v.11h0Z"/><path class="cls-5" d="m43.44,73.18c.28-.06.52-.05.7.04.18.08.32.25.37.5.12.57-.33.9-.71.98-.04,0-.08.01-.11.01l-.29-.02.12.61c.07.33.1.33.47.3l.02.11-1.09.22-.02-.11c.33-.1.35-.13.28-.46l-.31-1.56c-.07-.35-.12-.35-.44-.32l-.02-.11,1.02-.21v.02Zm-.06,1.38s.17.02.3,0c.27-.05.57-.25.47-.75-.09-.43-.41-.55-.74-.48-.12.02-.19.06-.21.09-.03.03-.03.08,0,.19l.19.95h0Z"/><path class="cls-5" d="m46.76,75.03l-.03-.11c.24-.1.26-.15.17-.28-.09-.14-.23-.31-.38-.53l-.84.24c0,.19-.03.36-.04.53-.02.27.05.29.38.24l.03.11-.9.25-.03-.11c.24-.1.29-.14.33-.53l.24-2.25.12-.06c.43.59.9,1.24,1.34,1.83.22.3.26.32.55.27l.03.11-.96.27v.02Zm-.97-1.94c-.03.37-.07.75-.1,1.09l.73-.21-.63-.88Z"/><path class="cls-5" d="m48.96,72.19c-.16-.22-.35-.43-.71-.3-.3.11-.32.36-.25.56.1.26.31.33.69.37.54.06.8.16.94.52.15.39-.09.82-.58,1-.23.08-.45.09-.63.09-.07-.09-.21-.33-.31-.53l.11-.07c.17.22.46.49.85.34.27-.1.37-.35.28-.59-.11-.29-.31-.35-.71-.4-.48-.07-.77-.16-.9-.51-.12-.33.04-.75.54-.94.21-.08.44-.1.53-.11.06.13.14.27.26.51l-.11.07h0Z"/><path class="cls-5" d="m51.06,71.28c-.17-.21-.38-.4-.73-.25-.29.13-.29.38-.21.57.11.25.33.31.71.32.55.03.81.11.97.46.17.38-.03.83-.51,1.04-.22.1-.44.12-.62.13-.08-.09-.23-.32-.35-.5l.1-.08c.18.21.49.46.87.28.27-.12.35-.38.24-.61-.13-.28-.33-.33-.73-.35-.48-.03-.78-.11-.93-.45-.15-.33,0-.75.48-.97.21-.09.43-.13.52-.15.07.12.15.26.29.49,0,0-.1.07-.1.07Z"/><path class="cls-5" d="m52.68,72.7l-.05-.1c.28-.19.3-.21.14-.52l-.74-1.41c-.16-.3-.2-.3-.51-.18l-.05-.1.96-.5.05.1c-.28.19-.3.22-.14.52l.74,1.41c.16.3.19.3.51.18l.05.1-.96.5Z"/><path class="cls-5" d="m54.13,68.83c.58-.37,1.39-.26,1.81.41.46.72.25,1.49-.38,1.89-.66.42-1.45.23-1.85-.41-.38-.6-.3-1.44.42-1.9h0Zm0,.17c-.38.24-.53.78-.13,1.41.4.63,1.04.87,1.52.56.41-.26.53-.76.12-1.41-.45-.71-1.06-.84-1.51-.56Z"/><path class="cls-5" d="m58.07,66.13c-.19.18-.23.27-.12.42.08.1.17.24.41.53l1,1.25-.12.1-2.65-.56.62.78c.22.28.35.42.42.5.13.15.25.14.49-.02l.07.09-.77.61-.07-.09c.18-.17.22-.28.11-.44-.07-.11-.18-.25-.4-.54l-.63-.8c-.07-.09-.12-.13-.23-.16-.12-.03-.2,0-.37.11l-.07-.09.47-.38,2.59.51-.61-.77c-.23-.29-.34-.42-.43-.51-.12-.13-.23-.12-.49.07l-.07-.09.78-.62.07.09h0Z"/><path class="cls-3" d="m38.68,48.89c-1.18,0-2.97-.11-4.96-1.04-.65-.3-2.18-1.02-3.53-2.59-.41-.47-.56-.74-.76-1.11-.21-.39-.5-.92-1.24-1.96-.25-.35-.46-.63-.64-.87-.58-.78-.85-1.13-.88-1.75-.03-.54.14-.82.37-1.21.19-.31.42-.7.63-1.38.23-.72.24-1.14.25-1.62s.02-1.02.25-1.95c.2-.82.41-1.67,1.01-2.59.28-.43.47-.6.86-.96.26-.24.61-.56,1.15-1.11h0c.74-.75,1.09-1.16,1.32-1.44.26-.31.37-.44.7-.63.54-.3.87-.31,1.46-.33.45-.01,1.07-.04,2.07-.2.72-.12,1.16-.23,1.52-.32.5-.12.83-.2,1.5-.2.53,0,1.5.03,2.55.52.48.23.7.43,1,.71.23.21.52.47,1.02.84.56.42.87.58,1.23.78.31.17.67.36,1.26.75,1.41.94,2.12,1.41,2.53,2.08.32.52.45,1.01.52,4.15.05,2.2.07,3.3,0,4.1-.2,2.18-.31,3.38-1.01,4.65-1.19,2.14-3.21,3.04-4.55,3.63-2.21.98-4.12,1.02-5.04,1.03h-.58v.02Zm.96-23c-.56,0-.85.07-1.32.19-.36.09-.81.2-1.54.32-1.02.16-1.65.18-2.1.2-.57.02-.86.03-1.35.3-.29.16-.38.26-.63.57-.23.28-.59.7-1.33,1.45h0c-.54.55-.9.88-1.16,1.12-.38.35-.55.51-.82.91-.58.89-.78,1.72-.98,2.52-.22.9-.23,1.43-.24,1.89-.01.48-.02.94-.26,1.69-.22.71-.46,1.11-.66,1.44-.22.37-.36.61-.34,1.07.03.55.26.86.83,1.62.18.24.39.52.64.87.75,1.06,1.05,1.59,1.26,1.99.2.37.34.62.73,1.07,1.32,1.53,2.81,2.23,3.45,2.52,2.3,1.07,4.34,1.03,5.43,1.01.9-.02,2.78-.05,4.94-1.01,1.31-.58,3.28-1.46,4.43-3.52.68-1.22.78-2.33.98-4.55.07-.79.05-1.88,0-4.06-.07-3.1-.19-3.57-.48-4.04-.39-.62-1.08-1.09-2.46-2.01-.58-.39-.93-.57-1.24-.74-.37-.2-.69-.37-1.26-.8-.51-.38-.8-.64-1.04-.86-.3-.27-.5-.45-.94-.66-.99-.47-1.9-.49-2.44-.5h-.11,0Z"/><path class="cls-3" d="m39.4,49.89c-1.25,0-3.15-.12-5.26-1.13-.69-.33-2.31-1.1-3.75-2.81-.43-.52-.59-.81-.8-1.21-.22-.42-.53-1-1.32-2.13-.26-.38-.49-.68-.68-.94-.62-.84-.9-1.23-.93-1.9-.03-.59.15-.9.39-1.32.2-.34.44-.76.67-1.5.24-.78.25-1.24.26-1.76.01-.52.02-1.11.26-2.11.21-.89.43-1.81,1.08-2.82.3-.46.5-.65.91-1.04.27-.26.65-.61,1.22-1.2h0c.78-.81,1.15-1.26,1.4-1.56.28-.34.39-.48.75-.68.57-.32.92-.34,1.55-.36.48-.02,1.13-.04,2.2-.21.77-.13,1.23-.25,1.61-.34.53-.14.88-.22,1.58-.21.56,0,1.59.03,2.7.57.51.25.74.47,1.06.77.24.23.55.51,1.08.91.6.45.93.63,1.31.84.33.18.71.39,1.33.82,1.49,1.02,2.24,1.53,2.68,2.26.34.56.47,1.1.55,4.51.05,2.39.08,3.58,0,4.45-.21,2.37-.33,3.67-1.07,5.05-1.26,2.33-3.4,3.3-4.82,3.94-2.34,1.06-4.37,1.1-5.34,1.12h-.62Zm1.02-24.98c-.59,0-.9.08-1.39.21-.38.1-.86.22-1.63.35-1.08.18-1.74.2-2.23.22-.61.02-.91.03-1.43.32-.31.18-.4.29-.67.62-.25.3-.63.76-1.41,1.58h0c-.58.6-.96.95-1.23,1.21-.4.38-.59.55-.87.99-.62.97-.83,1.86-1.04,2.73-.23.98-.25,1.55-.26,2.06-.01.52-.02,1.02-.27,1.84-.24.77-.49,1.21-.7,1.56-.23.4-.38.66-.36,1.17.03.59.28.93.88,1.76.19.26.42.57.68.95.8,1.15,1.11,1.73,1.34,2.16.21.4.36.67.77,1.16,1.4,1.66,2.98,2.42,3.66,2.74,2.44,1.16,4.6,1.12,5.76,1.1.96-.02,2.95-.06,5.24-1.1,1.39-.63,3.48-1.58,4.7-3.83.72-1.33.83-2.53,1.04-4.94.08-.86.05-2.04,0-4.41-.07-3.36-.2-3.87-.51-4.39-.41-.68-1.14-1.18-2.6-2.18-.61-.42-.98-.62-1.31-.8-.39-.22-.73-.4-1.34-.86-.54-.41-.85-.7-1.1-.93-.32-.3-.53-.49-1-.72-1.05-.51-2.01-.53-2.59-.54h-.12v-.03Z"/></g></svg>