<?xml version="1.0" encoding="UTF-8"?><svg id="Layer_2" xmlns="http://www.w3.org/2000/svg" viewBox="0 0 188.79 171.31"><defs><style>.cls-1{fill:#f9f9fa;}.cls-1,.cls-2{stroke-width:0px;}.cls-2{fill:#f8f7f8;}</style></defs><g id="Layer_2-2"><g id="Layer_1-2"><path class="cls-1" d="m21.22,87.36c2.97.84,4.46,1.25,7.45,2.04-.67,8.86-.58,13.25.27,21.64-2.86-.88-4.28-1.33-7.1-2.27,3.09,17.12,7.96,32.31,17.97,46.78-4.16-2.65-6.15-4.1-9.9-7.22-11.94-13.29-18.31-27.76-22.66-44.84-2.14-.84-3.2-1.26-5.31-2.13C.23,93.45-.18,89.28.07,80.88c2.27.75,3.41,1.12,5.69,1.85.06-1.37.1-2.06.21-3.42.24-3.07.84-6.35,1.88-9.83,1.04-3.47,2.47-6.15,4.11-8.11,1.63-1.96,3.61-3.38,5.86-4.31s5.1-1.01,8.53-.25c2.73.61,6.5,2.03,11.36,4.31-2.83,6.67-4.05,10.1-5.97,17.08-1.79-1.04-3.26-1.71-4.43-2-1.42-.36-2.52-.17-3.29.55s-1.45,2.02-1.94,3.88c-.27,1.02-.62,3.26-.85,6.74h0Z"/><path class="cls-1" d="m33.95,127.91c-2.51-10.68-1.17-19.67,3.11-26.31,4.29-6.65,10.65-9.35,17.98-7.85,8.39,1.72,14.21,7.59,18.14,17.3,3.17,7.82,4.78,16.79,5.33,26.58.62,11-.27,19.1-2.6,24.7-2.33,5.6-5.88,7.45-11.51,5.67-5.03-1.59-10-5.53-15.35-11.73-7.06-8.18-12.62-17.81-15.11-28.36h.01Zm14.44,4.31c1.04,6.38,2.85,11.03,4.89,14.25,2.03,3.22,4.02,5.06,5.96,5.56,1.97.51,3.23-.47,3.98-3.01.74-2.54.61-7.01-.1-13.7-.66-6.24-1.58-11.24-3.16-14.74-1.57-3.5-3.4-5.51-5.57-5.96-2.29-.48-4.17.76-5.45,3.67s-1.59,7.64-.56,13.93h.01Z"/><path class="cls-1" d="m91.78,71.55c6.27,1.07,9.41,1.58,15.68,2.57-4.23,32.17-6.31,64.35-4.39,96.8-5.28.44-8.04.49-13.38.26-5.28-33.29-3.35-66.51,2.09-99.62h0Z"/><path class="cls-1" d="m118.02,75.74c6.25.93,9.38,1.38,15.63,2.24-.59,7.29-.93,10.96-1.62,18.26-6.42-.44-9.64-.7-16.1-1.31.77-7.71,1.21-11.56,2.09-19.19Zm-2.93,28.03c6.49.45,9.72.61,16.14.84-2.02,20.77-3.99,41.58-6.92,62.25-4.86,1.48-7.36,2.08-12.48,2.95.24-22.06,1.5-44.05,3.26-66.03h0Z"/><path class="cls-1" d="m135.47,137.08c1.37-9.21,4.43-17.59,9.45-24.07,5.02-6.47,11.14-9.52,18.29-9.66,8.17-.16,13.91,2.91,16.15,8.07,1.8,4.16,1.07,8.98-2.31,14.8-3.8,6.55-9.35,12.16-15.06,17.85-5.7,5.7-10.5,10.46-15.35,13.52-4.32,2.73-7.23,2.86-9.21-.06-2.45-3.61-3.43-10.57-1.96-20.46h0Zm14.46-2.74c-1.21,4.92-1.57,8.21-1.06,9.98.51,1.77,1.57,2.21,3.32,1.49,1.77-.73,3.63-2.36,5.67-4.8s4.11-5.79,5.85-10.37c1.62-4.27,2-7.44,1.26-9.44-.74-2-2.2-2.94-4.27-2.67-2.18.29-4.26,1.73-6.19,4.39-1.93,2.67-3.4,6.57-4.59,11.42h0Z"/><path class="cls-2" d="m34.31,15.53c6.72-6.31,10.5-9.08,18.64-13.56,4.43-2.44,7.65-2.62,9.71-.48,2.07,2.14,3.01,6.36,2.43,12.45-.6,6.25-2.66,11.54-6.33,15.24s-8.99,5.35-15.63,5.47c-3.6.06-5.39.11-8.94.24-2.19,7.24-3.16,11.02-4.84,18.83-7.16-1.61-10.74-2.44-17.91-4.15,4.95-12.89,12.81-24.58,22.87-34.04Zm3.05,9.73c1.46-.29,2.2-.44,3.68-.71,2.91-.54,5.13-1.4,6.57-2.71s2.33-2.87,2.72-4.59c.38-1.67.2-2.94-.47-3.76s-2.28-.74-4.8.24c-1.54.6-2.3.9-3.81,1.54-1.64,3.86-2.42,5.86-3.89,9.99Z"/><path class="cls-2" d="m67.01,35.55c.65-7.62,3.14-13.67,7.23-18.75,4.09-5.09,9.14-8.05,15.72-8.15,7.53-.12,13.58,3.31,18,10.16,3.55,5.51,5.63,12.33,5.75,20.42.13,9.1-2.28,16.57-6.93,21.95-4.65,5.38-10.87,7.37-18.39,5.96-6.71-1.26-11.94-4.77-15.65-9.93-4.58-6.37-6.42-13.46-5.72-21.64v-.02Zm15.46.74c-.2,4.86.33,8.59,1.68,11.18,1.35,2.59,3.16,4.08,5.43,4.38,2.3.31,4.26-.66,5.84-2.95,1.58-2.28,2.46-6.18,2.53-11.53.06-4.98-.72-8.67-2.18-11.12-1.46-2.45-3.23-3.67-5.31-3.75-2.21-.08-4.01,1.04-5.49,3.29-1.48,2.25-2.3,5.7-2.5,10.48v.02Z"/><path class="cls-2" d="m118.92,12.08c5.3.9,7.91,1.46,13.03,2.78.73,3.5,1.06,5.28,1.64,8.91.66-3.63,1.38-5.91,2.37-6.96.98-1.05,2.38-1.27,4.24-.67,1.95.63,4.31,2.26,7.15,4.88.04,5.04-.15,7.73-.91,13.35-1.87-1.48-3.3-2.35-4.29-2.59-1.89-.47-3.17.34-3.95,2.48-1.12,3-1.2,9.14-1.03,18.83.15,8.11.03,12.28-.64,20.74-6.43-.98-9.65-1.48-16.08-2.53,1.28-19.85,1.29-39.47-1.52-59.21h0Z"/><path class="cls-2" d="m156.53,12.53c4.77,5.85,6.91,9.06,10.57,15.9,2.6,1.38,3.88,2.09,6.39,3.57,3.06,4.74,4.42,7.24,6.74,12.45-2.86-1.17-4.31-1.74-7.24-2.84,2.53,6.94,3.52,10.58,4.82,18.11.39,2.26.75,3.82,1.17,4.63.65,1.25,1.59,2,2.84,2.24,1.12.22,2.65.1,4.51-.33,1.36,5.57,1.87,8.41,2.46,14.16-3.94.63-7.68.8-11.13.38-4-.48-6.92-1.56-8.76-3.24s-3.16-4.08-4.07-7.15c-.91-3.06-1.42-7.89-2.07-14.22-.82-7.98-1.52-11.86-3.39-19.29-2.04-.65-3.07-.96-5.14-1.57-1.33-6.05-2.15-8.99-4.05-14.63,1.89.73,2.83,1.11,4.69,1.9-1.37-3.6-2.12-5.35-3.73-8.74,2.94-1.23,4.08-1.55,5.41-1.34h-.02Z"/></g></g></svg>