<?xml version="1.0" encoding="UTF-8"?><svg id="Layer_2" xmlns="http://www.w3.org/2000/svg" xmlns:xlink="http://www.w3.org/1999/xlink" viewBox="0 0 212.51 126.41"><defs><style>.cls-1{fill:url(#linear-gradient);}.cls-1,.cls-2{stroke-width:0px;}.cls-2{fill:#7ccdf3;}</style><linearGradient id="linear-gradient" x1="94.47" y1="171.22" x2="95.09" y2="12.14" gradientTransform="translate(0 127.82) scale(1 -1)" gradientUnits="userSpaceOnUse"><stop offset=".06" stop-color="#fff"/><stop offset=".44" stop-color="#1891cc"/></linearGradient></defs><g id="Layer_2-2"><path class="cls-1" d="m0,114.24V10.09c0-1.86.4-3.72,1.29-5.35C2.57,2.4,5.07-.12,9.89,0,17.3.19,52.87,0,56.72.01c2.05,0,4.05.5,5.79,1.48l14.73,8.29c1.72.97,3.71,1.48,5.74,1.48h97.78c2.02,0,4.04.46,5.72,1.48,1.54.93,3,2.38,3.19,4.6.4,4.8.02,91.59,0,96.66,0,.13,0,.25.03.38.17,1.04.76,7.28-8.79,9.02-9.86,1.8-151.31.2-166.75.02-.78,0-2.33-.1-3.1-.17-3.96-.36-11.04,1.72-11.04-9.01h-.02Z"/><path class="cls-2" d="m37.77,23.94h164.83c6.89,0,11.18,5.29,9.57,11.81l-19.44,78.84c-1.61,6.52-8.5,11.81-15.39,11.81H9.89c-5.44,0-8.83-4.17-7.56-9.32L22.38,35.76c1.61-6.51,8.5-11.81,15.39-11.81Z"/></g></svg>