<?xml version="1.0" encoding="UTF-8"?><svg id="Layer_2" xmlns="http://www.w3.org/2000/svg" viewBox="0 0 91.96 91.96"><defs><style>.cls-1{fill:#1d1b53;stroke:#221f20;stroke-miterlimit:10;}.cls-2{fill:#9695c5;stroke-width:0px;}</style></defs><g id="Layer_1-2"><rect class="cls-1" x=".5" y=".5" width="90.96" height="90.96" rx="12" ry="12"/><path class="cls-2" d="m25.38,25.62h15c1.63,0,3.2.16,4.71.47,1.51.41,3.05,1.25,4.6,2.52,1.3.96,2.36,2.32,3.17,4.1.85,1.72,1.28,3.75,1.28,6.09,0,3.16-1.08,6.04-3.24,8.64-2.22,2.73-5.46,4.14-9.72,4.22h-9.54v16.67h-6.26V25.62Zm6.26,19.95h9.3c2.33-.04,4.08-.79,5.26-2.24,1.12-1.41,1.68-2.98,1.68-4.71,0-1.43-.23-2.64-.68-3.62-.47-.88-1.14-1.58-1.99-2.09-1.29-.84-2.79-1.25-4.49-1.21h-9.07v13.86Z"/><path class="cls-2" d="m60.42,37.93h5.91v3.22h.12c1.95-2.4,4.5-3.6,7.66-3.6,2.37.04,4.43.82,6.19,2.33l-4.32,5.28c-1.25-1.02-2.55-1.53-3.89-1.53-1.51,0-2.81.51-3.89,1.53-1.21,1-1.84,2.61-1.88,4.84v18.33h-5.91v-30.41Z"/></g></svg>