<?xml version="1.0" encoding="UTF-8"?><svg id="Layer_2" xmlns="http://www.w3.org/2000/svg" viewBox="0 0 487.08 213.74"><defs><style>.cls-1{stroke:#fbf9d2;stroke-miterlimit:10;stroke-width:12px;}.cls-1,.cls-2{fill:#e8c672;}.cls-3{fill:#231f20;}.cls-3,.cls-4,.cls-2{stroke-width:0px;}.cls-4{fill:#fbf9d2;}</style></defs><g id="Layer_2-2"><g id="Layer_1-2"><rect class="cls-2" width="487.08" height="213.74" rx="11.64" ry="11.64"/><path class="cls-1" d="m97.06,16.38h289.35c49.71,0,90.08,40.36,90.08,90.08v4.97c0,47.72-38.74,86.46-86.46,86.46H97.06c-47.72,0-86.46-38.74-86.46-86.46v-8.59c0-47.72,38.74-86.46,86.46-86.46h0Z"/><path class="cls-3" d="m46.85,133.45v-44.16h-2.75v-1.71h9.88v45.87h-7.14.01Zm30.07-25.13c0,2.81-.51,5.44-1.53,7.9s-2.42,4.63-4.21,6.5c-1.79,1.87-3.89,3.38-6.31,4.51-2.42,1.14-5.03,1.77-7.84,1.89v4.33h-1.71v-45.87c3.17,0,6.08.54,8.72,1.62s4.92,2.55,6.83,4.42c1.91,1.87,3.4,4.07,4.45,6.59,1.06,2.52,1.59,5.23,1.59,8.11h0Zm-1.71.06c0-2.56-.47-4.97-1.4-7.23-.94-2.26-2.23-4.24-3.87-5.95s-3.57-3.08-5.76-4.12c-2.2-1.04-4.58-1.62-7.14-1.74v38.06c2.56-.12,4.94-.7,7.14-1.74s4.12-2.41,5.76-4.12,2.94-3.69,3.87-5.95c.94-2.26,1.4-4.67,1.4-7.23v.02Z"/><path class="cls-3" d="m82.65,133.45v-44.16h-2.81v-1.71h9.76v45.87h-6.95Zm8.3,0v-45.87h1.71v44.04h14.33v1.83h-16.04,0Z"/><path class="cls-3" d="m131.88,133.45l-1.46-4.51h-15.8l-1.46,4.51h-1.83l1.52-4.51h-2.99v-1.71h3.54l9.15-27.08,11.16,33.31h-1.83Zm-9.39-27.88l-7.26,21.66h14.58l-7.32-21.66h0Zm13.05,27.88l-12.26-35.38,3.54-10.31,15.8,45.69h-7.08Z"/><path class="cls-3" d="m149.63,133.45v-44.16h-9.03v-1.71h16.17v45.87h-7.14Zm10.06-44.16v44.16h-1.71v-45.87h11.22v1.71h-9.52,0Z"/><path class="cls-3" d="m174.88,133.45v-44.16h-2.81v-1.71h9.82v45.87h-7.02,0Zm8.17,0v-45.87h16.17v1.71h-14.46v8.66h11.29v1.71h-11.29v31.96h14.46v1.83h-16.17Z"/><path class="cls-3" d="m235.46,133.45v-44.16h-2.75v-1.71h9.88v45.87h-7.14.01Zm30.07-25.13c0,2.81-.51,5.44-1.53,7.9s-2.42,4.63-4.21,6.5c-1.79,1.87-3.89,3.38-6.31,4.51-2.42,1.14-5.03,1.77-7.84,1.89v4.33h-1.71v-45.87c3.17,0,6.08.54,8.72,1.62s4.92,2.55,6.83,4.42c1.91,1.87,3.4,4.07,4.45,6.59,1.06,2.52,1.59,5.23,1.59,8.11h0Zm-1.71.06c0-2.56-.47-4.97-1.4-7.23-.94-2.26-2.23-4.24-3.87-5.95s-3.57-3.08-5.76-4.12c-2.2-1.04-4.58-1.62-7.14-1.74v38.06c2.56-.12,4.94-.7,7.14-1.74s4.12-2.41,5.76-4.12,2.94-3.69,3.87-5.95c.94-2.26,1.4-4.67,1.4-7.23v.02Z"/><path class="cls-3" d="m293.1,121.62c0,1.71-.32,3.3-.95,4.79s-1.5,2.79-2.62,3.9-2.42,2-3.9,2.65c-1.49.65-3.08.98-4.79.98s-3.3-.33-4.79-.98c-1.48-.65-2.8-1.52-3.93-2.62-1.14-1.1-2.03-2.4-2.68-3.9s-.98-3.11-.98-4.82v-34.04h2.07v33.99c0,1.42.26,2.76.79,4.02.53,1.26,1.26,2.36,2.2,3.29.94.93,2.03,1.67,3.29,2.19,1.26.53,2.6.79,4.03.79s2.75-.27,4-.82c1.24-.55,2.33-1.29,3.26-2.22.94-.93,1.67-2.02,2.2-3.26.53-1.24.79-2.57.79-3.99v-33.99h2.01v34.04h0Zm-3.23-.12c0,1.06-.17,2.08-.52,3.08-.35,1-.84,1.89-1.49,2.68s-1.41,1.47-2.29,2.04-1.82.98-2.84,1.22v-42.94h7.14v33.92h0Z"/><path class="cls-3" d="m298.71,133.45v-44.16h-2.68v-1.71h9.82v45.87h-7.14Zm30.07-25.13c0,3.33-.74,6.46-2.22,9.36-1.48,2.91-3.56,5.36-6.25,7.35l5.06,8.42h-2.01l-4.44-7.44c-3.12,1.87-6.47,2.91-10.03,3.11v4.33h-1.71v-45.87h.85c2.84,0,5.53.54,8.06,1.62,2.53,1.08,4.73,2.56,6.6,4.45s3.35,4.1,4.44,6.62c1.09,2.52,1.64,5.21,1.64,8.05h.01Zm-1.71,0c0-2.55-.47-4.96-1.4-7.21-.94-2.25-2.23-4.23-3.87-5.93-1.65-1.7-3.57-3.07-5.76-4.11-2.2-1.03-4.58-1.61-7.14-1.73v37.94c2.56-.12,4.94-.7,7.14-1.73,2.2-1.03,4.12-2.4,5.76-4.1s2.94-3.68,3.87-5.93c.94-2.25,1.4-4.65,1.4-7.21h0Z"/><path class="cls-3" d="m359.29,131.75c-1.42.81-2.92,1.44-4.48,1.89-1.57.45-3.18.67-4.85.67-2.52,0-4.88-.48-7.08-1.43-2.2-.96-4.12-2.26-5.76-3.9-1.65-1.65-2.95-3.57-3.9-5.76-.96-2.2-1.43-4.55-1.43-7.08h1.71c0,2.28.43,4.42,1.28,6.44s2.02,3.76,3.51,5.25c1.48,1.49,3.23,2.65,5.25,3.51,2.01.85,4.16,1.28,6.44,1.28,1.3,0,2.6-.15,3.9-.46,1.3-.3,2.54-.78,3.72-1.43v-28.43l-7.62-2.81c-2.2-.81-3.77-1.87-4.73-3.17-.96-1.3-1.43-2.6-1.43-3.9,0-1.54.55-2.89,1.65-4.03,1.1-1.14,2.58-1.71,4.45-1.71,1.3,0,2.5.38,3.6,1.13s1.89,1.74,2.38,2.96l-1.59.61c-.37-.89-.96-1.6-1.77-2.1-.81-.51-1.69-.76-2.62-.76-1.38,0-2.44.38-3.17,1.13s-1.1,1.65-1.1,2.71c0,.98.36,1.95,1.07,2.92s1.8,1.75,3.26,2.31l9.33,3.59v30.58h-.02Zm8.91-15.62c0,3.01-.69,5.82-2.07,8.42s-3.29,4.76-5.73,6.47v-29.28c2.44,1.71,4.35,3.79,5.73,6.25s2.07,5.18,2.07,8.14Z"/><path class="cls-3" d="m395.76,121.62c0,1.71-.32,3.3-.95,4.79s-1.5,2.79-2.62,3.9-2.42,2-3.9,2.65c-1.49.65-3.08.98-4.79.98s-3.3-.33-4.79-.98c-1.48-.65-2.8-1.52-3.93-2.62-1.14-1.1-2.03-2.4-2.68-3.9-.65-1.5-.98-3.11-.98-4.82v-34.04h2.07v33.99c0,1.42.26,2.76.79,4.02.53,1.26,1.26,2.36,2.2,3.29.94.93,2.03,1.67,3.29,2.19,1.26.53,2.6.79,4.03.79s2.75-.27,4-.82c1.24-.55,2.33-1.29,3.26-2.22.94-.93,1.67-2.02,2.2-3.26.53-1.24.79-2.57.79-3.99v-33.99h2.01v34.04h0Zm-3.23-.12c0,1.06-.17,2.08-.52,3.08-.35,1-.84,1.89-1.49,2.68-.65.79-1.41,1.47-2.29,2.04s-1.82.98-2.84,1.22v-42.94h7.14v33.92Z"/><path class="cls-3" d="m401.5,133.45v-44.16h-2.81v-1.71h9.76v45.87h-6.95Zm8.3,0v-45.87h1.71v45.87h-1.71Z"/><path class="cls-3" d="m423.46,133.45v-44.16h-9.03v-1.71h16.17v45.87h-7.14,0Zm10.06-44.16v44.16h-1.71v-45.87h11.22v1.71h-9.52.01Z"/><circle class="cls-4" cx="17.71" cy="197.88" r="9.11"/><circle class="cls-4" cx="467.37" cy="16.38" r="9.11"/><circle class="cls-4" cx="467.37" cy="197.88" r="9.11"/><circle class="cls-4" cx="17.71" cy="16.38" r="9.11"/><path class="cls-4" d="m34.35,81.8c7.82-14.22,19.17-26.48,33.15-34.8,6.62-3.94,13.74-6.94,21.22-8.79,8.18-2.02,16.72-2.46,25.1-2.93,10.74-.61,21.49-.7,32.24-.7,3.22,0,3.22-5,0-5-9.83,0-19.67.08-29.49.56-8.89.43-18.01.84-26.73,2.69-15.98,3.39-30.68,11.94-42.31,23.31-6.94,6.79-12.84,14.64-17.51,23.14-1.55,2.82,2.76,5.35,4.32,2.52h0Z"/><path class="cls-4" d="m456.09,132.19c-7.8,14.23-19.14,26.5-33.12,34.83-6.61,3.94-13.73,6.95-21.21,8.81-8.18,2.03-16.72,2.47-25.1,2.96-10.73.62-21.49.72-32.24.74-3.22,0-3.22,5,0,5,9.83,0,19.67-.1,29.49-.59,8.89-.44,18-.86,26.73-2.72,15.98-3.4,30.67-11.96,42.28-23.35,6.93-6.79,12.82-14.65,17.49-23.16,1.55-2.82-2.77-5.35-4.32-2.52h0Z"/></g></g></svg>