<?xml version="1.0" encoding="UTF-8"?><svg id="Layer_2" xmlns="http://www.w3.org/2000/svg" viewBox="0 0 90.96 90.96"><defs><style>.cls-1{fill:#2a64a4;}.cls-1,.cls-2,.cls-3,.cls-4{stroke-width:0px;}.cls-2{fill:#5a95cd;}.cls-3{fill:#3d77b9;}.cls-4{fill:#fff;}</style></defs><g id="Layer_1-2"><rect class="cls-4" width="90.96" height="90.96" rx="12" ry="12"/><path class="cls-1" d="m16.6,69.42h0c.23-.09.45-.21.65-.36l43.03-32.35v-18.49h-1.82L11.05,61.07l-1.52,1.3s-.39.69-.03,1.03c.31.28,4.02,4.35,5.12,5.56.2.22.45.39.73.49h0c.4.14.85.14,1.25-.02Z"/><path class="cls-3" d="m10.45,26.48c.06-.19.17-.36.31-.5.94-.98,4.78-4.9,5.56-5.03.5-.08.99-.07,1.33-.05.27.02.53.12.75.28l42.76,32.32c.35.26.55.68.55,1.11v16.39c0,.61-.4,1.15-.98,1.33h0c-.13.04-.28.06-.42.06h-.8c-.35,0-.69-.13-.94-.37L11,28.49s-.98-.59-.55-2.01Z"/><path class="cls-2" d="m60.2,17.46h.37c.26,0,.52.05.76.15l14.6,5.81c.8.32,1.33,1.1,1.34,1.98l.5,38.88c0,.36-.07.72-.24,1.03-.13.24-.32.52-.6.79-.69.66-15.72,6.5-15.72,6.5,0,0-.09.07-.3.13-1.32.43-2.66-.65-2.67-2.07l-.16-51.04c0-1.19.94-2.16,2.11-2.16Z"/></g></svg>